<svg width="15" height="12" viewBox="0 0 15 12" fill="none" xmlns="http://www.w3.org/2000/svg">
<path d="M12.2391 2.8107C12.0905 2.77045 12.0046 2.74571 11.9184 2.72455C10.0337 2.26768 8.14895 1.81311 6.26547 1.35218C6.12803 1.31865 5.98397 1.26112 5.87121 1.17603C5.70171 1.04782 5.65823 0.778501 5.73942 0.581759C5.82254 0.380471 6.02578 0.249659 6.24231 0.268519C6.34045 0.277175 6.43871 0.299569 6.53506 0.323174C8.87456 0.886894 11.2138 1.45189 13.5534 2.01664C14.0706 2.14155 14.2116 2.3652 14.1026 2.88795C13.6056 5.27415 13.1087 7.65971 12.6104 10.0456C12.5202 10.4786 12.1993 10.6739 11.8562 10.5085C11.6459 10.4072 11.5431 10.2345 11.5493 10.0057C11.5523 9.89101 11.5771 9.77695 11.6004 9.66488C11.9901 7.78879 12.3817 5.91316 12.7723 4.03761C12.7887 3.95866 12.7999 3.87809 12.823 3.74021L12.5407 3.91881C6.83659 7.52817 6.80936 7.44369 1.10448 11.0519C1.0035 11.1158 0.896492 11.1752 0.784578 11.2167C0.553116 11.3029 0.293085 11.206 0.162976 10.9987C0.0321184 10.7902 0.0562764 10.5118 0.233892 10.343C0.325833 10.2555 0.432604 10.1814 0.540078 10.1133C6.23084 6.51079 6.24545 6.60326 11.937 3.00189L12.2391 2.8107Z" fill="#424242"/>
</svg>
