<svg width="19" height="19" viewBox="0 0 19 19" fill="none" xmlns="http://www.w3.org/2000/svg">
<path d="M16.2826 6.9823V14.3657C17.4276 14.2022 17.6923 15.8283 16.5477 15.9844L1.99438 15.9798C0.931251 15.681 1.26348 14.2117 2.36035 14.3657V6.9823C1.7968 7.11274 1.50219 6.46476 2.02848 6.21126C6.82484 6.12407 11.6381 6.19861 16.4404 6.17364C17.1232 6.26998 16.9614 7.11801 16.2822 6.9823H16.2826ZM6.43883 6.9823H4.01305V14.3657H6.43883V6.9823ZM10.5521 14.3657V7.03504L10.4994 6.9823H8.09117V14.3657H10.5521ZM14.6302 6.9823H12.222L12.1693 7.03504V14.3657H14.6302V6.9823Z" fill="white"/>
<path d="M9.20774 0.135063C9.45805 0.100959 9.64789 0.206084 9.87289 0.295388C12.5669 1.36633 15.2029 2.81066 17.8959 3.90938C18.5969 4.3225 18.3867 5.32242 17.6023 5.43634H1.04094C0.309689 5.3516 0.0579702 4.39528 0.661955 3.96458C3.29375 2.80996 5.87633 1.51576 8.52465 0.400865C8.72117 0.318241 9.00699 0.162487 9.20809 0.135063H9.20774Z" fill="white"/>
<path d="M1.12321 16.4838L17.4266 16.4722C18.5582 16.5106 18.624 18.0104 17.4969 18.1272L1.07751 18.1261C0.0600848 17.9616 0.0657099 16.6044 1.12321 16.4838Z" fill="white"/>
</svg>
