<svg width="16" height="17" viewBox="0 0 16 17" fill="none" xmlns="http://www.w3.org/2000/svg">
<path d="M4.63256 9.66145C5.73802 9.66145 6.62395 10.556 6.62395 11.6693V14.342C6.62395 15.4475 5.73802 16.3491 4.63256 16.3491H1.9826C0.884984 16.3491 -0.00878906 15.4475 -0.00878906 14.342L-0.00878906 11.6693C-0.00878906 10.556 0.884984 9.66145 1.9826 9.66145L4.63256 9.66145ZM13.6801 9.66145C14.7777 9.66145 15.6715 10.556 15.6715 11.6693L15.6715 14.342C15.6715 15.4475 14.7777 16.3491 13.6801 16.3491L11.0302 16.3491C9.92472 16.3491 9.03878 15.4475 9.03878 14.342L9.03878 11.6693C9.03878 10.556 9.92472 9.66145 11.0302 9.66145L13.6801 9.66145ZM4.63256 0.669067C5.73802 0.669067 6.62395 1.57068 6.62395 2.67692L6.62395 5.34962C6.62395 6.46291 5.73802 7.35669 4.63256 7.35669H1.9826C0.884984 7.35669 -0.00878906 6.46291 -0.00878906 5.34962L-0.00878906 2.67692C-0.00878906 1.57068 0.884984 0.669067 1.9826 0.669067L4.63256 0.669067ZM13.6801 0.669067C14.7777 0.669067 15.6715 1.57068 15.6715 2.67692L15.6715 5.34962C15.6715 6.46291 14.7777 7.35669 13.6801 7.35669H11.0302C9.92472 7.35669 9.03878 6.46291 9.03878 5.34962L9.03878 2.67692C9.03878 1.57068 9.92472 0.669067 11.0302 0.669067L13.6801 0.669067Z" fill="#1A1A1A"/>
</svg>
