<svg width="26" height="26" viewBox="0 0 26 26" fill="none" xmlns="http://www.w3.org/2000/svg">
<path d="M12.6074 0.0220154C14.8445 -0.252048 15.6856 2.1186 17.6849 2.36252C19.1836 2.54559 20.7392 2.12792 21.8263 3.48837C22.5424 4.38401 22.531 5.83051 22.8956 6.901C23.408 8.40397 25.2155 9.01403 25.7912 10.4386C26.4873 12.1592 25.2637 13.2954 24.6884 14.7688C24.0065 16.5146 25.359 18.3388 24.3624 20.0297C23.6766 21.1934 22.2158 21.4192 21.1038 21.9942C19.4767 22.8356 19.253 25.1015 17.6394 25.7785C15.8552 26.5267 14.3266 24.953 12.5522 25.1799C11.6455 25.2956 10.5898 25.9215 9.66951 25.9901C6.85021 26.2 6.87025 23.028 4.89322 21.9948C3.76226 21.4033 2.30305 21.1978 1.61461 19.9957C0.655882 18.3212 1.9851 16.5014 1.30857 14.7694C0.78967 13.4407 -0.302842 12.3538 0.0795647 10.8048C0.497178 9.11434 2.56791 8.51195 3.11336 6.8588C3.53422 5.58385 3.43185 4.02718 4.54765 3.10303C5.63745 2.20027 7.01975 2.52805 8.31213 2.36306C10.0508 2.14052 11.061 0.211119 12.6074 0.0220154ZM12.9346 4.0206C5.89853 4.08199 1.68719 12.117 5.664 18.0351C9.17986 23.2675 16.861 23.2538 20.3547 18.0022C24.3174 12.0457 20.0086 3.95921 12.9346 4.0206Z" fill="white"/>
<path d="M12.9349 4.89798C19.1785 4.84427 23.0914 11.8362 19.8133 17.2352C16.8461 22.1223 9.87182 22.3958 6.532 17.7603C2.70793 12.4534 6.47187 4.95389 12.9349 4.89798ZM16.4507 9.39317C15.9194 9.4847 15.6171 9.99391 15.2748 10.3409C14.165 11.4645 13.0513 12.5849 11.942 13.7097C11.3186 13.1796 10.7531 12.3755 10.128 11.874C8.92393 10.9076 7.46851 12.353 8.44728 13.5748C8.93476 14.1832 10.6177 15.9142 11.2157 16.3642C11.5905 16.6465 12.0498 16.7107 12.4772 16.4991C13.9629 15.0356 15.538 13.5825 16.9539 12.0401C17.1321 11.846 17.6202 11.3555 17.722 11.1729C18.2268 10.2724 17.4549 9.21996 16.4502 9.39317H16.4507Z" fill="white"/>
</svg>
