<svg width="27" height="26" viewBox="0 0 27 26" fill="none" xmlns="http://www.w3.org/2000/svg">
<path d="M2.61817 22.7659C1.26056 22.6129 0.122449 21.3955 0.00254043 20.0464L0 2.76926C0.133118 1.28097 1.28139 0.136685 2.76856 0H15.6775C17.2505 0.155485 18.3404 1.36126 18.4471 2.92119V8.19955L15.1222 9.34486C14.922 9.01204 14.6588 8.73918 14.2533 8.6904L4.10381 8.70259C3.19687 8.90584 2.93521 10.1091 3.71411 10.6436C3.76695 10.6797 4.05808 10.8245 4.09212 10.8245H11.434C10.7958 11.45 10.3451 12.2472 10.3157 13.1619C10.1516 13.0658 9.97321 13.0237 9.78471 13.0074C8.00235 12.8555 6.00354 13.1207 4.19831 13.0135C2.89355 13.265 2.95858 15.0328 4.30094 15.1888C6.04774 15.0958 7.9551 15.3315 9.6831 15.1959C9.9097 15.1781 10.1053 15.1141 10.3162 15.0419C10.3649 16.5322 10.1856 18.0571 10.4838 19.5235C10.5926 20.0586 10.7795 20.5723 10.9523 21.0875L11.7896 22.7654H2.61817V22.7659ZM4.25827 4.33529C2.97078 4.49687 2.90879 6.2194 4.15462 6.49379C5.60418 6.38251 7.40332 6.68688 8.81224 6.50192C10.0672 6.33729 10.1282 4.43793 8.6151 4.31954C7.21939 4.21029 5.66973 4.39322 4.25827 4.3358V4.33529Z" fill="white"/>
<path d="M18.9901 10.3265C19.2874 10.2787 19.4769 10.3341 19.7533 10.4027C21.5971 10.8585 23.539 11.8184 25.389 12.3377C25.7563 12.5053 26.0043 12.8742 26.0165 13.2853C25.8879 15.7141 26.4016 18.2679 25.4139 20.5621C24.5227 22.6307 22.4726 24.4665 20.5108 25.5163C19.7132 25.9431 19.4246 26.1962 18.5278 25.8054C15.4147 24.4487 12.6269 21.3675 12.447 17.8625C12.381 16.58 12.3388 14.5932 12.447 13.3361C12.4872 12.8747 12.7046 12.4886 13.1461 12.3077L18.9901 10.327V10.3265ZM18.9012 18.3929C18.8276 18.4128 18.8169 18.3731 18.7742 18.3437C18.2555 17.9849 17.6305 16.9097 16.9929 16.8228C15.9919 16.6867 15.3634 17.7237 15.9335 18.5428C16.1764 18.8919 17.9415 20.6485 18.2971 20.9046C18.7925 21.2613 19.3194 21.1978 19.7655 20.8065L23.1717 16.2355C23.7235 15.1638 22.47 14.1456 21.5199 14.8884L18.9012 18.3929Z" fill="white"/>
</svg>
