<svg width="26" height="26" viewBox="0 0 26 26" fill="none" xmlns="http://www.w3.org/2000/svg">
<path d="M1.96557 22.1676C0.961843 22.032 0.0706852 20.9921 0.00261797 19.9942L0 2.24328C0.0973886 1.21127 0.777014 0.362524 1.78179 0.097585C6.69991 -0.0322664 11.6809 -0.03279 16.6 0.097585C17.2781 0.280843 17.8525 0.732705 18.1551 1.36992C18.4981 2.09143 18.3494 2.82708 18.3829 3.602C17.7237 3.73081 17.2503 4.15544 16.9309 4.72616C16.5409 4.66228 16.1581 4.54971 15.7618 4.67904V3.86747C15.7618 3.67583 15.4099 3.41665 15.213 3.42136L3.08764 3.44597C2.86511 3.49048 2.67766 3.65122 2.63106 3.87951C2.56404 4.20937 2.57347 5.80895 2.62373 6.16657C2.65567 6.39119 2.78343 6.54408 2.98239 6.64566L14.1643 6.6687L14.2721 6.71791C14.2994 7.51692 14.88 7.9625 15.3937 8.4751C15.0879 8.69553 14.8198 8.96675 14.6245 9.28772C14.0004 9.35159 13.1977 9.19713 12.5966 9.29033C11.9055 9.39715 11.9678 10.7904 12.3903 11.0082C12.7799 11.2088 14.0815 10.9789 14.5816 11.0685L15.0151 11.5119L13.7077 13.0984C13.0836 13.1833 12.2107 12.8419 12.1013 13.7178C12.0479 14.1451 12.0914 14.5388 12.3348 14.8933C11.6788 15.885 11.04 16.9421 10.8379 18.1365C10.7468 18.149 10.7881 18.0176 10.786 17.9543C10.7745 17.6322 10.8054 17.0908 10.3824 16.9961C10.1122 16.9353 8.34138 16.9406 8.04032 16.9882C7.89371 17.0113 7.7115 17.1547 7.66804 17.2966C7.62092 17.4511 7.61882 18.249 7.656 18.414C7.69003 18.5669 7.86439 18.703 8.00995 18.7407C8.27593 18.8098 9.98076 18.8088 10.286 18.7622C10.3714 18.7491 10.5085 18.6862 10.5761 18.6334C10.6614 18.5669 10.6499 18.4627 10.7337 18.4517C10.5216 19.7046 10.6462 21.0026 11.1531 22.1692H1.96557V22.1676ZM3.26461 9.4605C3.08188 9.66732 3.00072 10.9491 3.4552 11.0439L5.89148 11.0664C6.38785 10.9711 6.39152 9.81497 6.15119 9.49977C6.01872 9.32594 5.8941 9.30447 5.68519 9.2851C5.21605 9.24112 4.0966 9.23012 3.6395 9.28562C3.52955 9.29871 3.3332 9.38249 3.26461 9.4605ZM8.05131 9.29923C7.84816 9.34007 7.67223 9.52124 7.64396 9.72963C7.62039 9.90399 7.62092 10.5543 7.65757 10.7156C7.7094 10.9465 7.92617 11.0496 8.14137 11.0695C8.64088 11.1156 9.80431 11.1255 10.2918 11.0685C10.8159 11.0067 10.829 10.3506 10.7876 9.94221C10.751 9.58302 10.6305 9.33274 10.2394 9.28615C9.87185 9.24216 8.38484 9.23221 8.05131 9.29923ZM3.60076 13.122C3.44996 13.1492 3.27142 13.2686 3.2023 13.4042C3.11905 13.5676 3.11015 14.3446 3.15413 14.5383C3.21539 14.809 3.50128 14.9216 3.74318 14.9441C4.20499 14.987 5.22809 14.9933 5.68257 14.942C6.34335 14.8682 6.34649 14.2624 6.2847 13.711C6.24125 13.3257 6.06846 13.1518 5.68257 13.1089C5.29668 13.066 3.97303 13.0539 3.60024 13.1215L3.60076 13.122ZM10.6133 13.2843C10.5195 13.189 10.32 13.1246 10.186 13.1094C9.73467 13.0581 8.70528 13.0644 8.24661 13.1073C8.00157 13.1304 7.71831 13.244 7.65757 13.5131C7.62144 13.6728 7.62354 14.4278 7.67014 14.5781C7.72721 14.764 7.9623 14.9106 8.14922 14.9368C8.49898 14.9865 10.1028 14.9839 10.3981 14.8912C10.9054 14.7315 10.9039 13.5796 10.6138 13.2838L10.6133 13.2843ZM3.49499 16.995C3.04523 17.0961 3.09287 17.9605 3.1468 18.3155C3.18712 18.581 3.37928 18.7339 3.6395 18.7653C4.0877 18.8187 5.28359 18.815 5.73493 18.7643C6.05432 18.7281 6.24753 18.536 6.28575 18.2155C6.32659 17.8752 6.33392 17.1767 5.9695 17.0113L3.49447 16.995H3.49499Z" fill="white"/>
<path d="M15.7858 11.9785C15.9618 12.0109 16.1277 12.0586 16.3094 12.0643C17.8608 12.1167 19.6332 12.1214 21.183 12.0643C21.3532 12.058 21.5119 11.9842 21.6815 11.9863C24.278 14.9048 27.573 18.5616 25.1247 22.6551C22.5308 26.992 15.3978 27.1166 12.5479 22.9996C9.68858 18.8684 13.0511 14.9745 15.7864 11.9785H15.7858ZM19.1724 21.9131C21.4621 21.589 21.7737 18.9737 19.4793 18.2673C18.9918 18.1171 17.6907 18.0213 17.5535 17.4186C17.3016 16.3122 18.7855 15.9709 19.529 16.4903C19.8892 16.7421 19.9924 17.4081 20.4757 17.3301C20.9301 17.2568 20.9427 16.8474 20.782 16.4939C20.5149 15.9059 19.807 15.4436 19.1887 15.3122C19.1677 14.9179 19.2138 14.432 18.6693 14.4681C18.0692 14.5074 18.3106 15.1446 18.1991 15.3117C18.176 15.3462 17.5896 15.5468 17.431 15.6431C15.9141 16.5678 16.4351 18.4417 18.0787 18.936C18.6405 19.1051 19.8625 19.1632 20.0332 19.8612C20.3118 21.0021 18.4766 21.2099 17.7781 20.7026C17.3697 20.4057 17.4111 20.0455 17.2116 19.8287C16.9011 19.4905 16.3482 19.7188 16.389 20.257C16.4524 21.0906 17.4425 21.7561 18.2001 21.9037C18.2027 22.2645 18.2326 22.7718 18.7195 22.7483C19.208 22.7247 19.1829 22.2906 19.1724 21.9137V21.9131Z" fill="white"/>
<path d="M18.5232 4.43083C19.0541 4.35072 19.4756 4.57325 19.7175 5.04343C19.8411 5.28376 19.8086 5.55027 20.1296 5.67803C20.5364 5.83982 20.6626 5.55813 20.9946 5.48797C21.5187 5.37801 22.0507 5.61572 22.2564 6.11733C22.6491 7.07446 21.6983 7.60381 21.1538 8.21275L16.365 8.23893C16.2529 8.21746 15.4586 7.41008 15.3518 7.26243C14.7235 6.39535 15.3979 5.26701 16.4456 5.48849C16.7582 5.55446 16.9331 5.82883 17.31 5.67803C17.6326 5.54923 17.6169 5.25706 17.742 5.01045C17.887 4.72352 18.2012 4.479 18.5232 4.43083Z" fill="white"/>
<path d="M16.1675 9.09033H21.2736C22.4873 9.30448 22.4491 11.0721 21.2281 11.2187C19.6709 11.4057 17.7613 11.1015 16.1675 11.2119C14.9811 10.9706 14.9779 9.3338 16.1675 9.09033Z" fill="white"/>
</svg>
