<svg width="22" height="26" viewBox="0 0 22 26" fill="none" xmlns="http://www.w3.org/2000/svg">
<path d="M14.1781 4.87861L13.2921 4.36418V3.47069H0.888207V21.6653H13.2921V21.232H14.1781V24.9414C14.1781 25.3475 13.4322 26.0157 12.9881 25.9978L1.24593 26C0.576449 25.9464 0.0177198 25.3892 0 24.7275V1.22074C0.0470684 0.602885 0.568143 0.0846652 1.19277 0.00452253L12.9349 0.00235651C13.399 -0.0452959 14.1786 0.640791 14.1786 1.06046V4.87807L14.1781 4.87861ZM5.63491 23.4094C5.18472 23.5383 5.21462 24.1897 5.68198 24.2612C6.11778 24.3278 8.06309 24.3278 8.49944 24.2612C8.98839 24.1865 8.99006 23.4766 8.49944 23.4013L5.63491 23.4094Z" fill="white"/>
<path d="M5.36012 18.2193L19.3549 18.2058C20.7188 18.3412 20.7188 20.2354 19.3549 20.3707H5.45703C4.13634 20.2397 4.08152 18.4495 5.36012 18.2193Z" fill="white"/>
<path d="M8.4193 11.706H5.76132V17.3377H8.4193V11.706Z" fill="white"/>
<path d="M11.963 11.706H9.30502V17.3377H11.963V11.706Z" fill="white"/>
<path d="M15.5069 11.706H12.849V17.3377H15.5069V11.706Z" fill="white"/>
<path d="M19.051 11.706H16.393V17.3377H19.051V11.706Z" fill="white"/>
<path d="M21.1563 10.1032L13.0533 5.08509C12.7848 4.94322 12.4713 4.8999 12.1701 4.94593C12.0317 4.96705 11.8583 5.05369 11.7238 5.10459L3.71607 10.0534C3.37441 10.3323 3.56047 10.8516 4.01454 10.8375L21.0306 10.7942C21.2964 10.6545 21.349 10.3247 21.1563 10.1032Z" fill="white"/>
</svg>
