<svg width="26" height="24" viewBox="0 0 26 24" fill="none" xmlns="http://www.w3.org/2000/svg">
<path d="M19.5887 8.29334H18.0122C19.4718 10.484 19.4805 13.412 18.0122 15.6026H20.4856C20.5884 15.6026 20.8895 15.853 20.84 16.0107C20.7373 17.4316 20.9727 19.0347 20.8428 20.4333C20.8259 20.6166 20.6791 20.8937 20.4856 20.8937H5.67222V23.321C5.67222 23.5883 5.0824 23.8158 4.88452 23.512C3.45754 22.0708 1.92456 20.7344 0.479644 19.3135C0.272528 19.1095 -0.418945 18.4985 -0.418945 18.2482C-0.418945 18.1265 -0.371108 18.0665 -0.306961 17.9754C-0.136811 17.7316 0.350808 17.3083 0.588366 17.0738C2.0148 15.6708 3.52767 14.3502 4.93834 12.9293C5.13676 12.6767 5.67276 12.9506 5.67276 13.1748V15.6021H7.24923C5.79888 13.4022 5.77604 10.4878 7.24923 8.2928H4.7758C4.67306 8.2928 4.3719 8.04243 4.42137 7.88479C4.52411 6.46384 4.28873 4.8607 4.41865 3.46212C4.4355 3.27884 4.58228 3.00174 4.7758 3.00174H19.5892V0.574944C19.5892 0.307664 20.179 0.0802029 20.3769 0.38403C21.787 1.80552 23.301 3.12502 24.7274 4.52796C24.94 4.73688 25.6804 5.39581 25.6804 5.64782C25.6804 5.76945 25.6325 5.82946 25.5684 5.92055C25.3982 6.16438 24.9106 6.58766 24.673 6.82221C23.2466 8.22516 21.7321 9.54411 20.3231 10.9667C20.1247 11.2192 19.5887 10.9454 19.5887 10.7212V8.29389V8.29334ZM12.0216 6.34602C8.16467 6.68857 5.89346 10.9934 7.59986 14.4599C9.17253 17.6552 13.4415 18.6142 16.19 16.3107C20.4693 12.7237 17.6115 5.85018 12.0221 6.34656L12.0216 6.34602Z" fill="white"/>
</svg>
