<svg width="27" height="26" viewBox="0 0 27 26" fill="none" xmlns="http://www.w3.org/2000/svg">
<path d="M12.3688 0.5C15.472 0.5 18.0029 2.9875 18.0029 6.05L18.0029 12.0375L10.3721 12.0375C9.82524 12.0375 9.39283 12.4625 9.39283 13C9.39283 13.525 9.82524 13.9625 10.3721 13.9625L18.0029 13.9625L18.0029 19.9375C18.0029 23 15.472 25.5 12.3434 25.5L6.14973 25.5C3.03382 25.5 0.50293 23.0125 0.50293 19.95L0.50293 6.0625C0.50293 2.9875 3.04654 0.5 6.16245 0.5L12.3688 0.5ZM21.1782 8.68775C21.5532 8.30025 22.1657 8.30025 22.5407 8.67525L26.1907 12.3127C26.3782 12.5002 26.4782 12.7377 26.4782 13.0002C26.4782 13.2502 26.3782 13.5002 26.1907 13.6752L22.5407 17.3127C22.3532 17.5002 22.1032 17.6002 21.8657 17.6002C21.6157 17.6002 21.3657 17.5002 21.1782 17.3127C20.8032 16.9377 20.8032 16.3252 21.1782 15.9502L23.1782 13.9627L18.0032 13.9627V12.0377L23.1782 12.0377L21.1782 10.0502C20.8032 9.67525 20.8032 9.06275 21.1782 8.68775Z" fill="#F58220"/>
</svg>
