<svg width="31" height="30" viewBox="0 0 31 30" fill="none" xmlns="http://www.w3.org/2000/svg">
<path d="M2.40798 0.0146426L11.0618 -1.90735e-06C12.3417 0.187448 13.3047 1.14813 13.4928 2.43098C13.3159 5.17419 13.73 8.21849 13.4957 10.9266C13.3821 12.2393 12.2398 13.3013 10.9446 13.4132C8.26348 13.2556 5.33632 13.6264 2.68389 13.4161C1.32077 13.3083 0.233553 12.2147 0.0800776 10.865C0.2687 8.18217 -0.178839 5.13729 0.0865212 2.49659C0.210122 1.25884 1.18955 0.237239 2.40798 0.0146426ZM2.64054 1.88738C2.27618 2.01625 1.98739 2.3232 1.95342 2.72329C2.12329 5.27436 1.72789 8.11715 1.95107 10.6337C1.99793 11.1644 2.32539 11.4948 2.85904 11.5416C5.35916 11.7625 8.17913 11.3694 10.7132 11.5416C11.1684 11.5328 11.5919 11.1556 11.6218 10.6928C11.4361 8.1318 11.859 5.24331 11.6212 2.72095C11.586 2.34546 11.4173 2.07893 11.0653 1.92956L2.64054 1.88738Z" fill="#2A7091"/>
<path d="M19.2813 16.4777C21.84 16.2381 24.6981 16.62 27.2884 16.4607C28.7488 16.5468 29.9385 17.5825 30.0709 19.0674C30.3034 21.6806 29.8969 24.6218 30.0738 27.2695C29.9742 28.5424 29.1008 29.5693 27.8601 29.8593C25.1403 29.8511 22.1435 30.1199 19.4371 29.9348C18.0225 29.8382 16.8896 28.9226 16.6576 27.5009L16.6635 18.8384C16.9118 17.5221 17.9539 16.6013 19.2813 16.4771V16.4777ZM19.3961 18.3499C18.9738 18.4131 18.593 18.6779 18.5303 19.1243L18.559 27.416C18.7008 27.8032 19.0915 28.0357 19.4957 28.0609C21.9765 27.8957 24.725 28.273 27.1742 28.0609C27.7828 28.0082 28.1436 27.7217 28.1993 27.0944C28.0523 24.5755 28.3867 21.8516 28.1993 19.3574C28.1507 18.7072 27.8203 18.3885 27.1736 18.3329C24.6992 18.1185 21.9027 18.4852 19.3955 18.3504L19.3961 18.3499Z" fill="#2A7091"/>
<path d="M18.9861 0.0148883L27.6926 0.00610161C28.9983 0.225769 29.959 1.28837 30.0732 2.60462C29.911 5.26875 30.2818 8.17422 30.0732 10.8096C29.9654 12.1728 28.8718 13.26 27.5221 13.4134C24.8387 13.2576 21.9168 13.6237 19.2614 13.4164C17.9223 13.3121 16.8538 12.3139 16.6576 10.9824L16.6635 2.37851C16.872 1.1554 17.7659 0.242171 18.9861 0.0148883ZM19.2186 1.88763C18.9234 1.96202 18.7008 2.1483 18.5872 2.42772C18.4759 5.23419 18.5315 8.08225 18.559 10.8969C18.7119 11.2595 19.0277 11.5343 19.4371 11.5419C21.9707 11.3691 24.7918 11.7633 27.2913 11.5419C27.8221 11.495 28.1524 11.1676 28.1993 10.6339C28.4201 8.1338 28.0271 5.31385 28.1993 2.77977C28.1981 2.35567 27.8326 1.92395 27.4073 1.87298L19.2186 1.88763Z" fill="#2A7091"/>
<path d="M7.85815 15.3639C10.9581 15.0897 13.8003 17.0193 14.4605 20.0905C15.6491 25.6209 9.49776 29.6013 4.91985 26.3631L2.76944 28.493C1.90072 29.0735 0.788904 28.0319 1.6008 27.0314C1.85034 26.7239 3.56552 25.1722 3.58954 25.0328C0.829908 21.3259 3.23338 15.7727 7.85815 15.3639ZM7.97472 17.2378C6.03753 17.4364 4.42604 19.1914 4.29716 21.1168C4.04938 24.8166 8.3877 27.0701 11.2364 24.6584C14.4312 21.9533 12.2017 16.8049 7.97472 17.2378Z" fill="#2A7091"/>
</svg>
