<svg width="51" height="62" viewBox="0 0 51 62" fill="none" xmlns="http://www.w3.org/2000/svg">
<path fill-rule="evenodd" clip-rule="evenodd" d="M25.2704 47.0284L9.29098 61.2605L18.2314 41.8L0 31.1938L20.8339 33.4481L25.2704 0L29.6934 33.4481L50.5273 31.1938L32.3094 41.8L41.2498 61.2605L25.2704 47.0284Z" fill="#231F20"/>
<path fill-rule="evenodd" clip-rule="evenodd" d="M25.2703 46.6191L10.1674 60.0499L18.6224 41.6759L1.40234 31.6536L21.0901 33.7857L25.2703 2.32031L29.4371 33.7857L49.1248 31.6536L31.9048 41.6759L40.3598 60.0499L25.2703 46.6191Z" fill="#EF4123"/>
<path fill-rule="evenodd" clip-rule="evenodd" d="M29.436 33.7891H21.089L18.6348 41.6928L25.2693 46.6224L31.9038 41.6792L29.436 33.7891Z" fill="#007DC5"/>
<path fill-rule="evenodd" clip-rule="evenodd" d="M25.2564 44.9386C22.2898 44.9386 19.876 42.5077 19.876 39.5201C19.876 36.5324 22.2898 34.1016 25.2564 34.1016C28.223 34.1016 30.6368 36.5324 30.6368 39.5201C30.6368 42.5077 28.223 44.9386 25.2564 44.9386Z" fill="#231F20"/>
<path fill-rule="evenodd" clip-rule="evenodd" d="M25.2556 44.6223C22.4508 44.6223 20.1719 42.3273 20.1719 39.5026C20.1719 36.6779 22.4508 34.3828 25.2556 34.3828C28.0605 34.3828 30.3394 36.6779 30.3394 39.5026C30.3394 42.3273 28.0605 44.6223 25.2556 44.6223Z" fill="white"/>
<path fill-rule="evenodd" clip-rule="evenodd" d="M25.0681 36.0018C25.0681 36.0018 25.0681 36.0154 25.0681 36.0289C25.0681 36.0425 25.0681 36.0561 25.0816 36.0561C25.0276 36.0561 25.0141 36.0289 25.0141 36.0289C25.0141 36.0289 25.0276 36.0018 25.0816 36.0018H25.0681ZM25.122 36.0018C25.122 36.0018 25.149 36.0018 25.176 36.0154C25.176 36.0154 25.1625 36.0425 25.122 36.0425C25.122 36.0425 25.1355 36.0289 25.1355 36.0154C25.1355 36.0154 25.1355 36.0018 25.1355 35.9882L25.122 36.0018ZM25.0141 36.0697C25.0141 36.0697 25.0681 36.0833 25.0951 36.0833C25.1894 36.0833 25.2164 36.0154 25.2299 36.0154C25.2299 35.9475 25.1894 35.8796 25.122 35.8796C25.095 35.8796 25.0546 35.8796 25.0411 35.8931C25.0141 35.8931 25.0007 35.9339 24.9872 35.961C25.0276 35.961 25.0546 35.9067 25.1355 35.9203C25.176 35.9203 25.2164 35.9882 25.1894 35.9882C25.176 35.9746 25.1625 35.961 25.149 35.961C25.0816 35.9339 25.0276 35.9882 24.9872 36.0154C24.9872 36.0154 24.9872 36.0154 24.9602 36.0154C24.9602 36.0154 24.9872 36.0561 25.0141 36.0833V36.0697ZM25.4187 36.0018C25.4187 36.0018 25.4187 36.0154 25.4187 36.0289C25.4187 36.0425 25.4187 36.0561 25.4322 36.0561C25.3917 36.0561 25.3647 36.0289 25.3647 36.0289C25.3647 36.0289 25.3782 36.0018 25.4322 36.0018H25.4187ZM25.4726 36.0018H25.4996C25.4996 36.0018 25.4861 36.0289 25.4457 36.0425C25.4457 36.0425 25.4591 36.0289 25.4591 36.0154C25.4591 36.0154 25.4591 36.0018 25.4591 35.9882L25.4726 36.0018ZM25.2164 36.2734C25.2164 36.2734 25.2299 36.2734 25.2434 36.2734C25.2838 36.2734 25.3108 36.3006 25.3513 36.2734C25.4052 36.2462 25.3513 36.1648 25.3513 36.1104C25.3513 36.0833 25.3513 36.0697 25.3647 36.0425C25.3647 36.0425 25.4726 36.0969 25.5401 36.0425C25.5401 36.0425 25.567 36.0425 25.5805 36.0289V36.0018C25.5805 36.0018 25.567 36.0289 25.5535 36.0018C25.5131 35.9746 25.4861 35.961 25.4322 35.9746C25.3917 35.9746 25.3513 36.0018 25.3513 36.0018C25.3378 35.9203 25.4996 35.9067 25.5535 35.961C25.5535 35.9339 25.54 35.9203 25.5266 35.9067C25.4726 35.866 25.3647 35.9067 25.3243 35.9339C25.2973 35.961 25.2973 36.0968 25.2973 36.1376C25.2973 36.1648 25.3243 36.1783 25.3108 36.2055C25.3108 36.2191 25.3108 36.2462 25.2838 36.2462C25.2569 36.2462 25.2029 36.2191 25.2164 36.2734ZM27.5897 42.8055C27.5897 42.8055 27.5223 42.724 27.4818 42.6833C27.4818 42.6833 27.4549 42.6697 27.4414 42.6561C27.4414 42.6561 27.4144 42.6425 27.4009 42.6289C27.3605 42.6018 27.2931 42.6018 27.2391 42.5882C27.2256 42.5882 27.1987 42.5882 27.1852 42.5882C27.1582 42.5882 27.1447 42.561 27.1178 42.561C27.0369 42.5475 26.9559 42.561 26.8616 42.5475C26.7402 42.5475 26.6188 42.5203 26.4975 42.5067C26.4435 42.5067 26.3761 42.4931 26.3356 42.4796C26.3222 42.4796 26.2952 42.466 26.2817 42.4524C26.2278 42.4524 26.2008 42.4524 26.1603 42.4524C26.1469 42.4524 26.1334 42.4796 26.1199 42.4796C26.0929 42.4796 26.0794 42.4388 26.0525 42.4524C26.039 42.466 26.0255 42.4931 26.039 42.5203L26.0794 42.561C26.1199 42.5746 26.1469 42.561 26.1603 42.561C26.2547 42.5339 26.3626 42.5882 26.4435 42.6018C26.6593 42.6425 26.9559 42.6154 27.1447 42.6833C27.1852 42.6833 27.2122 42.6833 27.2526 42.7104C27.347 42.7512 27.4144 42.8055 27.4818 42.8462C27.5223 42.9006 27.5628 42.9413 27.6437 42.9685C27.6841 42.9685 27.7381 42.9685 27.7381 42.9277C27.7381 42.8598 27.6302 42.8734 27.5762 42.8462L27.5897 42.8055ZM28.9382 42.5203C28.9382 42.5203 28.9921 42.5746 28.9787 42.6018C28.9787 42.6018 28.9787 42.6289 28.9517 42.6154C28.9112 42.6154 28.9247 42.5339 28.8573 42.5339C28.8573 42.5339 28.8438 42.5339 28.8303 42.5475C28.8168 42.6018 28.9247 42.6154 28.8843 42.6968C28.8843 42.724 28.8303 42.7376 28.7899 42.7376C28.7899 42.724 28.8034 42.7104 28.8034 42.6968C28.8034 42.6425 28.7359 42.6018 28.682 42.6425C28.682 42.6833 28.7359 42.7104 28.709 42.7512C28.682 42.7783 28.6281 42.7783 28.6011 42.7512C28.6011 42.7512 28.6281 42.7512 28.6415 42.7512C28.6415 42.7512 28.6415 42.7512 28.655 42.7376C28.655 42.7104 28.6415 42.7104 28.6146 42.6968C28.6011 42.6833 28.5741 42.6697 28.5741 42.6561C28.5741 42.561 28.4932 42.5475 28.4123 42.5339C28.264 42.5339 28.1022 42.5067 27.9538 42.4931C27.9538 42.4252 27.8999 42.4117 27.8459 42.3981C27.765 42.3845 27.6976 42.3845 27.6032 42.3573C27.5762 42.3573 27.5223 42.3302 27.5088 42.303C27.5088 42.2759 27.5493 42.2487 27.5762 42.2351C27.6571 42.1808 27.7246 42.1265 27.792 42.0586C27.9538 42.0857 28.0617 42.1536 28.1831 42.2215C28.21 42.2351 28.2505 42.2487 28.2775 42.2623C28.3044 42.2759 28.3449 42.303 28.3853 42.303C28.5471 42.3438 28.7629 42.303 28.8843 42.3845C28.9247 42.4117 28.9652 42.4524 28.9652 42.5067C28.9382 42.5067 28.9382 42.4388 28.8977 42.4388C28.8843 42.4388 28.8708 42.4524 28.8708 42.466C28.8708 42.4796 28.8978 42.4931 28.9112 42.5067L28.9382 42.5203ZM28.5202 42.6833C28.5202 42.6833 28.4528 42.6697 28.4123 42.6697C28.3584 42.6697 28.2909 42.6425 28.237 42.6425C28.1831 42.6425 28.1156 42.6289 28.0617 42.6154C28.1021 42.5882 28.1696 42.6154 28.2235 42.6154C28.3314 42.6154 28.5067 42.6154 28.5337 42.6697C28.5337 42.6697 28.5337 42.6968 28.5337 42.7104C28.5337 42.7104 28.5202 42.7104 28.5067 42.7104L28.5202 42.6833ZM28.0212 42.6968C28.0212 42.6968 28.0752 42.7648 28.0752 42.8327C28.0617 42.8598 28.0347 42.8734 28.0212 42.9006C28.0212 42.8734 28.0212 42.8327 27.9943 42.8191C27.9943 42.8191 27.9943 42.8462 27.9808 42.8462C27.9538 42.8462 27.9673 42.8055 27.9403 42.8191C27.9403 42.8462 27.9673 42.8598 27.9673 42.9006C27.9673 42.9685 27.9269 43.0092 27.8594 43.0092C27.8594 42.982 27.9134 42.9956 27.9134 42.9685C27.9134 42.9277 27.8864 42.9141 27.8729 42.9006C27.8594 42.9006 27.8729 42.9141 27.8594 42.9277C27.8325 42.9277 27.819 42.8734 27.792 42.887C27.8055 42.9141 27.8325 42.9413 27.792 42.9685C27.765 42.982 27.7246 42.9956 27.6976 42.9956C27.6437 42.9956 27.5897 42.9956 27.5493 42.9549C27.5358 42.9277 27.5223 42.9006 27.5088 42.887C27.4819 42.8734 27.4549 42.8734 27.4279 42.8462C27.4279 42.8462 27.4144 42.8191 27.4009 42.8055C27.3875 42.7919 27.347 42.7783 27.32 42.7647C27.2391 42.724 27.1178 42.6968 27.0234 42.6833C26.8481 42.6697 26.6458 42.6833 26.484 42.6425C26.43 42.6425 26.3626 42.6154 26.3087 42.6018C26.2413 42.6018 26.1873 42.6154 26.1334 42.6018C26.0794 42.6018 26.0525 42.561 26.039 42.5067C26.0255 42.3845 25.9985 42.2487 25.9446 42.1672C25.9311 42.1265 25.9176 42.0722 25.9446 42.0043C25.9446 41.9635 25.9716 41.9092 25.9716 41.8685C25.9716 41.8141 25.9716 41.7598 25.985 41.7055C25.985 41.6104 26.0255 41.5289 26.066 41.4882C26.0929 41.4882 26.1064 41.5289 26.1199 41.5425C26.1603 41.5697 26.2143 41.5833 26.2547 41.624C26.2682 41.624 26.2817 41.6648 26.2952 41.6783C26.3491 41.7734 26.3222 41.9092 26.3626 42.0178C26.3626 42.0314 26.3761 42.045 26.3761 42.0586C26.3222 42.0586 26.2413 42.0586 26.2143 42.0993C26.2413 42.1401 26.3087 42.0993 26.3626 42.0993C26.4166 42.0993 26.484 42.1129 26.5244 42.1401C26.5514 42.1672 26.5784 42.208 26.6188 42.2215C26.6728 42.2487 26.7672 42.2487 26.8346 42.2487C26.9155 42.2487 26.9964 42.2623 27.0773 42.2759C27.1852 42.303 27.2931 42.3438 27.3875 42.3845C27.4009 42.3845 27.4279 42.3845 27.4414 42.4117C27.4414 42.4117 27.4684 42.4252 27.4818 42.4388C27.5223 42.466 27.5628 42.4524 27.6032 42.466C27.6437 42.466 27.6841 42.4931 27.7246 42.4931C27.7515 42.5067 27.8055 42.5203 27.8459 42.5475C27.8594 42.5475 27.8729 42.5746 27.8864 42.5746C27.9134 42.5746 27.9403 42.5746 27.9673 42.5746C27.9943 42.5746 28.0212 42.6018 28.0482 42.6154C28.1022 42.6425 28.1426 42.6833 28.1426 42.7512C28.1156 42.7376 28.1156 42.6833 28.0752 42.7104L28.0212 42.6968ZM26.2413 42.8734C26.2413 42.8734 26.1334 42.7919 26.0525 42.7783C26.0255 42.7783 25.9985 42.7783 25.985 42.7783C25.985 42.8055 26.0255 42.8055 26.039 42.8055C26.0929 42.8055 26.1334 42.8327 26.1738 42.8598C26.1873 42.8598 26.2278 42.887 26.2143 42.9141C26.2008 42.9549 26.1199 42.887 26.1199 42.8734C26.0929 42.8734 26.0929 42.8462 26.066 42.8462C26.0525 42.8462 26.0255 42.8462 26.012 42.8462C25.985 42.8462 25.9716 42.8462 25.9581 42.8327C25.9581 42.887 26.0525 42.8734 26.0794 42.9006C26.0794 42.9006 26.0794 42.9006 26.0794 42.9277C26.0794 42.9277 26.0929 42.9413 26.1064 42.9549C26.1064 42.9549 26.1064 42.9413 26.1064 42.9277C26.1738 42.9277 26.1738 42.9956 26.1199 43.0092C26.066 43.0228 26.0255 42.982 25.985 42.9685C25.9176 42.9685 25.8637 42.9685 25.8097 42.9685C25.7558 42.9685 25.7423 42.9277 25.7019 42.9006C25.6614 42.8598 25.621 42.8598 25.567 42.8462C25.594 42.8055 25.6075 42.7376 25.6479 42.6968C25.6749 42.6697 25.7828 42.6289 25.8367 42.6561C25.8637 42.6561 25.9041 42.6833 25.9311 42.6833C25.9446 42.6833 25.9716 42.7104 25.985 42.7104C25.9985 42.7104 26.012 42.7512 26.0255 42.7512C26.066 42.7512 26.1334 42.7783 26.1738 42.7919C26.1738 42.7919 26.2143 42.7919 26.2143 42.8191C26.2143 42.8191 26.2143 42.8326 26.2008 42.8462C26.1873 42.8462 26.1873 42.8327 26.1738 42.8191C26.1334 42.7919 26.0794 42.8055 26.0255 42.7783C26.0255 42.7783 26.0525 42.7783 26.0525 42.7919C26.1199 42.7919 26.1738 42.8327 26.2278 42.8598C26.2413 42.8598 26.2682 42.887 26.2413 42.9006V42.8734ZM25.4996 42.3845C25.4996 42.0722 25.5131 41.7462 25.5266 41.4203C25.5266 41.4203 25.5266 41.461 25.5266 41.4746C25.54 41.5968 25.567 41.7462 25.5805 41.8685C25.6075 42.0178 25.6479 42.1536 25.6479 42.3166C25.6075 42.3302 25.5805 42.3438 25.5401 42.3573C25.5131 42.3573 25.4996 42.3845 25.4726 42.3845H25.4996ZM25.7828 42.2215C25.7828 42.2215 25.7288 42.2215 25.7019 42.2351C25.6479 42.0043 25.594 41.7327 25.567 41.461C25.54 41.1894 25.5131 40.8907 25.5266 40.6327C25.54 40.6327 25.567 40.6191 25.5805 40.6327C25.621 40.6462 25.6075 40.782 25.6075 40.8364C25.6075 41.0536 25.621 41.2709 25.6479 41.461C25.6479 41.5968 25.6749 41.7462 25.7019 41.8549C25.7153 41.9907 25.7693 42.0993 25.7828 42.2215ZM25.7153 41.3796C25.6884 41.1487 25.7019 40.9043 25.7153 40.6734C25.7153 40.6462 25.7153 40.6055 25.7153 40.5783C25.7153 40.524 25.7153 40.4697 25.7558 40.4289C25.7693 40.4154 25.7963 40.4018 25.8232 40.3882C25.8502 40.3746 25.8637 40.3475 25.8772 40.3339C25.8772 40.2931 25.9041 40.266 25.9041 40.2388C25.9176 40.7141 25.8502 41.0536 25.8097 41.4882C25.8097 41.6104 25.7828 41.7327 25.7693 41.8549C25.7288 41.7191 25.7153 41.5561 25.7019 41.3931L25.7153 41.3796ZM25.3782 40.5783C25.3782 40.5783 25.3108 40.6598 25.2704 40.7006C25.2569 40.7277 25.2299 40.7413 25.2164 40.7685C25.3378 40.4289 25.4861 40.1166 25.594 39.7499C25.6479 39.5734 25.6884 39.3968 25.7423 39.2067C25.7963 39.0166 25.8097 38.8129 25.8232 38.582C25.8232 38.582 25.8772 38.6499 25.8772 38.6771C25.9176 38.7993 25.9446 38.9351 25.9716 39.0709C25.985 39.166 25.9985 39.261 25.9985 39.3561C25.9985 39.3968 25.9985 39.4512 25.9985 39.5055C25.9985 39.5598 25.9985 39.6141 25.9985 39.6685C25.9985 39.7228 25.9446 39.7771 25.9176 39.8314C25.8907 39.8857 25.8502 39.9265 25.8232 39.9808C25.7693 40.0759 25.6884 40.1709 25.621 40.2524C25.5266 40.361 25.4457 40.4697 25.3513 40.5783H25.3782ZM25.4591 40.8771C25.4591 41.1351 25.4457 41.3931 25.4322 41.6512C25.4322 41.9499 25.4052 42.2487 25.3917 42.5339C25.3378 42.5339 25.2838 42.5067 25.2164 42.4931C25.149 42.4931 25.0816 42.4796 25.0141 42.4796C25.1085 42.1401 25.2299 41.8141 25.2973 41.4475C25.3378 41.2302 25.3917 41.0129 25.4322 40.7956C25.4457 40.7956 25.4457 40.8771 25.4457 40.9043L25.4591 40.8771ZM24.9737 42.7104C24.9737 42.7104 25.0276 42.6018 25.0411 42.5475C25.0411 42.5475 25.0007 42.6697 24.9737 42.7104C24.9737 42.7104 24.9737 42.7104 24.9602 42.7104H24.9737ZM25.2569 42.8598C25.2569 42.8598 25.2434 42.9685 25.176 43.0092C25.176 43.0092 25.149 43.0092 25.1355 43.0092C25.0951 43.0364 25.0951 43.1722 25.0007 43.1178C24.9737 43.0635 25.0411 43.0635 25.0681 43.0907C25.0681 43.0635 25.0411 43.0635 25.0007 43.0635C25.0007 43.0092 25.0411 42.982 25.0816 42.9549C25.0816 42.9413 25.0816 42.9277 25.0816 42.9277C25.0546 42.9006 25.0411 42.9277 25.0411 42.9685C25.0411 42.982 25.0007 43.0092 24.9872 43.0364C24.9737 43.0635 24.9737 43.0907 24.9332 43.0635C24.9332 42.982 25.0007 42.982 25.0141 42.9277C25.0141 42.9277 25.0141 42.9277 25.0141 42.9141C24.9602 42.9141 24.9737 42.9685 24.9467 42.982C24.9332 43.0092 24.9198 43.0499 24.9063 43.0907C24.9063 43.0907 24.8928 43.0907 24.8793 43.0907C24.8793 43.0907 24.8793 43.0771 24.8793 43.0635C24.8793 43.0635 24.8793 43.0635 24.8928 43.0635C24.8658 43.0092 24.9063 42.9549 24.9332 42.9413C24.9063 42.887 24.8658 42.982 24.8523 43.0092C24.8523 43.0228 24.8523 43.0499 24.8388 43.0499C24.8254 43.0499 24.8388 42.9685 24.8388 42.9549C24.8388 42.9277 24.8793 42.9277 24.8793 42.9006C24.8658 42.9006 24.8388 42.9141 24.8254 42.9277C24.8254 42.9277 24.8254 42.9549 24.7984 42.9549C24.7714 42.9549 24.7984 42.9141 24.7984 42.9141C24.8254 42.887 24.8388 42.8734 24.8658 42.8734C24.8793 42.8734 24.8793 42.8462 24.9063 42.8327C24.9467 42.8055 25.0411 42.8327 25.0816 42.8327C25.1085 42.8327 25.149 42.8327 25.176 42.8327C25.2029 42.8327 25.2434 42.8327 25.2569 42.8598C25.2569 42.8734 25.2434 42.887 25.2434 42.9006L25.2569 42.8598ZM24.9198 43.0907C24.9198 43.0907 24.9197 43.0907 24.9332 43.0907C24.9332 43.0635 24.9602 43.0635 24.9737 43.0907C24.9872 43.145 24.9063 43.145 24.9198 43.0907ZM24.6635 42.8462C24.5422 42.8462 24.4343 42.8462 24.3264 42.8598C24.2995 42.7376 24.2725 42.6289 24.2455 42.5203C24.3669 42.5203 24.5017 42.5339 24.6096 42.5475C24.6231 42.561 24.6366 42.5746 24.6501 42.6018C24.677 42.6289 24.704 42.6425 24.731 42.6697C24.7444 42.6833 24.7579 42.7104 24.7849 42.724C24.7849 42.724 24.8119 42.7376 24.8119 42.7512C24.8254 42.7647 24.8523 42.7783 24.8793 42.7919C24.8658 42.8055 24.8254 42.8191 24.8119 42.8462C24.7849 42.8598 24.731 42.8462 24.677 42.8462H24.6635ZM24.3534 42.982V42.9685C24.3534 42.9685 24.3804 42.9685 24.3938 42.9549C24.4882 42.9277 24.6231 42.9141 24.7444 42.9141C24.7444 42.9141 24.7714 42.9141 24.7849 42.9141C24.6501 42.9413 24.5017 42.9549 24.3669 42.982H24.3534ZM24.1781 43.0364C24.1107 43.0635 24.0163 43.0771 23.9219 43.0771C23.8814 43.0771 23.841 43.0771 23.8005 43.0771C23.7331 43.0771 23.6792 43.0771 23.6387 43.0499C23.6117 43.0364 23.5982 43.0228 23.5713 43.0092C23.5443 42.982 23.5173 42.9413 23.5308 42.887C23.5308 42.887 23.5308 42.8734 23.5308 42.8598C23.5308 42.8462 23.5578 42.8327 23.5578 42.8191C23.5578 42.7919 23.5443 42.7783 23.5308 42.7647C23.4904 42.7647 23.4634 42.7648 23.4499 42.8055C23.4499 42.8055 23.4499 42.8055 23.4499 42.8191C23.4499 42.8191 23.4229 42.8326 23.4229 42.8462C23.4229 42.8462 23.396 42.8462 23.3825 42.8462C23.3555 42.8462 23.3151 42.8462 23.3016 42.8327C23.2476 42.8055 23.2072 42.7512 23.1667 42.6968C23.1667 42.6561 23.1398 42.6289 23.1532 42.5882C23.1532 42.561 23.1533 42.5203 23.1802 42.4931C23.1802 42.4796 23.2207 42.4388 23.2072 42.3981C23.2072 42.3981 23.1802 42.3845 23.1667 42.3709C23.1667 42.3573 23.1667 42.3438 23.1398 42.3302C23.1263 42.3302 23.0993 42.3302 23.0858 42.3438C23.0589 42.3709 23.0589 42.4388 23.0454 42.4796C23.0454 42.5475 23.0454 42.6154 23.0454 42.6833C23.0454 42.724 23.0723 42.7376 23.0858 42.7783C23.1128 42.8191 23.1398 42.8462 23.1802 42.887C23.2072 42.9277 23.2746 42.9413 23.2881 42.982C23.3151 42.982 23.342 43.0092 23.3825 43.0228C23.4095 43.0635 23.4769 43.0635 23.5173 43.0907C23.5443 43.0907 23.5848 43.1178 23.6117 43.1314C23.7466 43.1722 23.8545 43.2401 23.9758 43.2808C24.0163 43.308 24.0702 43.3351 24.1107 43.3623C24.1241 43.3894 24.1511 43.4166 24.1781 43.4438C24.1511 43.4438 24.1376 43.403 24.0972 43.4166C24.0972 43.4438 24.1242 43.4709 24.1511 43.4845C24.1511 43.4845 24.1511 43.4845 24.1511 43.4981C24.1511 43.4981 24.1781 43.5117 24.1781 43.5252C24.1511 43.5252 24.1376 43.4981 24.1241 43.4845C24.1241 43.4709 24.0972 43.4438 24.0837 43.4438C24.0837 43.4438 24.0837 43.4573 24.0837 43.4709C24.0837 43.4709 24.0702 43.4573 24.0567 43.4438C24.0432 43.4573 24.0702 43.4845 24.0837 43.4981C24.0702 43.4981 24.0567 43.4709 24.0298 43.4573C24.0298 43.4573 24.0298 43.4709 24.0298 43.4981C24.0298 43.4981 24.0298 43.4709 24.0028 43.4845C24.0028 43.4981 24.0028 43.5117 24.0028 43.5388C24.0028 43.5524 24.0163 43.566 24.0163 43.5931C24.0163 43.661 23.9893 43.7561 24.0163 43.8104C23.9758 43.7697 24.0028 43.6746 24.0028 43.6067C24.0028 43.5796 23.9758 43.5252 23.9623 43.4981C23.8679 43.3623 23.6926 43.2672 23.5173 43.2265C23.4769 43.1993 23.4095 43.1857 23.369 43.1722C23.2476 43.145 23.1398 43.0907 23.0319 43.0364C22.9779 42.9956 22.9375 42.9549 22.897 42.9006C22.8701 42.8734 22.8431 42.8327 22.8161 42.7919C22.8026 42.7648 22.7892 42.724 22.7757 42.6968C22.7757 42.6561 22.7757 42.6425 22.7757 42.6018C22.7757 42.561 22.7757 42.5203 22.7757 42.4796C22.7757 42.3845 22.8296 42.2759 22.8701 42.208C22.9105 42.1401 22.951 42.0993 22.9914 42.045C23.0454 41.9907 23.0993 41.9364 23.1398 41.882C23.1937 41.8006 23.2207 41.7327 23.2881 41.6783C23.3285 41.6512 23.369 41.6376 23.4095 41.6104C23.5308 41.5425 23.6792 41.5018 23.8275 41.4746C23.9084 41.7598 23.9758 42.0586 24.0567 42.3438C24.0567 42.3845 24.0837 42.4252 24.0837 42.466C24.0432 42.466 23.9084 42.4117 23.8679 42.4388C23.8275 42.466 23.8679 42.5339 23.9219 42.5339C23.9219 42.5339 23.9084 42.5339 23.8949 42.5339C23.8814 42.5339 23.8545 42.561 23.8275 42.561C23.8275 42.561 23.814 42.561 23.8005 42.561C23.7735 42.561 23.7601 42.5882 23.7466 42.6154C23.7331 42.6561 23.7466 42.6968 23.8005 42.6697C23.8275 42.6561 23.8679 42.6154 23.8814 42.6018C23.9488 42.5746 24.0298 42.5475 24.1107 42.561C24.1376 42.6833 24.1781 42.8055 24.1916 42.9277C24.1242 42.9277 24.0298 42.9413 23.9489 42.9277C23.8949 42.9141 23.8679 42.9141 23.8275 42.9277C23.8275 42.9277 23.841 42.9413 23.841 42.9685C23.841 43.0228 23.7601 43.0092 23.7601 42.9685C23.7466 43.0364 23.8275 43.0771 23.8814 43.0907C23.8814 43.0907 23.8949 43.0907 23.9084 43.0907C24.0163 43.0907 24.1376 43.0499 24.2185 43.0364C24.2185 43.0635 24.1781 43.0635 24.1511 43.0771L24.1781 43.0364ZM24.0972 43.4438C24.0972 43.4438 24.1376 43.5117 24.1511 43.5524C24.1242 43.5252 24.1107 43.4845 24.0972 43.4438ZM23.7331 40.4561C23.6792 40.1981 23.6117 39.9401 23.5443 39.6685C23.5308 39.6006 23.5173 39.5327 23.4904 39.4783C23.4769 39.4104 23.4499 39.3425 23.4364 39.2882C23.3555 38.8944 23.2476 38.5006 23.1532 38.1203C23.2072 38.1475 23.2881 38.1339 23.342 38.1475C23.342 38.2018 23.342 38.2425 23.4229 38.2425C23.4229 38.2697 23.4229 38.2968 23.4499 38.3104C23.4904 38.3104 23.5308 38.3104 23.5578 38.2968C23.787 38.3919 23.9893 38.5006 24.2725 38.5549C24.2725 38.8265 24.2455 39.1252 24.2455 39.424C24.2455 39.5191 24.232 39.6141 24.232 39.7228C24.232 39.9129 24.2185 40.103 24.1916 40.2931C24.1781 40.4289 24.1511 40.5647 24.1511 40.7006C24.1511 40.7549 24.1511 40.7956 24.1511 40.8499C24.1511 40.8907 24.1376 40.9586 24.1511 40.9857L24.1781 41.0129C24.232 41.0536 24.3399 41.0944 24.3938 41.1351C24.3938 41.1487 24.3938 41.1759 24.3938 41.1894C24.232 41.203 24.0837 41.2302 23.9354 41.2573C23.8679 40.9993 23.8005 40.7413 23.7466 40.4833L23.7331 40.4561ZM23.1263 37.9573C23.1263 37.9573 23.1667 37.9302 23.1667 37.903C23.1667 37.8759 23.1533 37.8623 23.1398 37.8487C23.1667 37.8487 23.1802 37.8759 23.1937 37.903C23.1937 37.903 23.2476 37.9573 23.2611 37.9573C23.2881 37.9573 23.3286 37.9573 23.3151 37.9166C23.2881 37.9166 23.2611 37.9166 23.2476 37.8894C23.2072 37.8623 23.1937 37.8215 23.1802 37.7808C23.1937 37.7536 23.1802 37.7265 23.1532 37.7129C23.1532 37.6722 23.1533 37.645 23.1263 37.6178C23.1667 37.6314 23.2072 37.6586 23.2476 37.6857C23.3285 37.7265 23.369 37.7944 23.3825 37.8894C23.4095 37.903 23.4499 37.9166 23.4634 37.9438C23.4634 38.0117 23.4229 38.066 23.3825 38.0931C23.3555 38.0796 23.3285 38.0524 23.2881 38.0252C23.2611 38.0524 23.1533 38.0388 23.1263 38.0252C23.1263 38.0252 23.0993 37.9709 23.1128 37.9573H23.1263ZM23.0319 37.9166C23.0319 37.9166 23.0049 37.9438 22.9914 37.9573C22.9645 37.9573 22.9375 37.8759 22.9914 37.8623C23.0319 37.8487 23.1532 37.8623 23.1532 37.903C23.1532 37.9438 23.0723 37.903 23.0454 37.9166H23.0319ZM22.924 37.7944C22.924 37.7944 23.0319 37.7808 23.0723 37.7944C23.0858 37.7944 23.1263 37.808 23.1128 37.8351C23.0589 37.8351 22.9914 37.808 22.9375 37.8623C22.924 37.8623 22.9105 37.8215 22.9105 37.7944H22.924ZM22.9105 37.6993C22.9105 37.6993 22.951 37.6993 22.9645 37.6857C23.0319 37.6857 23.0454 37.7129 23.0858 37.7265C23.1128 37.7401 23.1533 37.7536 23.1398 37.7672C23.1398 37.7808 23.1263 37.7808 23.0993 37.7808C23.0589 37.7808 23.0184 37.7401 22.9645 37.7536C22.9375 37.7536 22.924 37.7672 22.9105 37.7672C22.8836 37.7672 22.8836 37.7129 22.9105 37.6857V37.6993ZM23.1263 37.6993C23.1263 37.6993 23.0858 37.6722 23.0589 37.6722C23.0049 37.645 22.951 37.6722 22.897 37.6722C22.8701 37.5364 23.1398 37.5907 23.1128 37.6993H23.1263ZM22.9375 37.482C22.9375 37.482 22.9645 37.4956 22.9645 37.5092C22.9914 37.5364 23.0184 37.5499 23.0454 37.5771C23.0184 37.5635 22.9645 37.5771 22.9375 37.5635C22.924 37.5635 22.897 37.482 22.9375 37.482ZM23.5308 37.9302C23.5308 37.9302 23.5443 37.9302 23.5578 37.9302C23.5713 37.9845 23.5578 38.0388 23.5308 38.0796C23.5173 38.1203 23.4769 38.1746 23.4499 38.1882C23.4229 38.1882 23.396 38.1882 23.396 38.1746C23.396 38.1746 23.4229 38.1339 23.4364 38.1203C23.4769 38.066 23.5173 37.9981 23.5308 37.9302ZM23.6117 37.9709H23.6387C23.6252 37.9709 23.5848 38.0252 23.6252 38.0388C23.6117 38.0524 23.5982 38.066 23.5982 38.0931C23.5848 38.0931 23.5713 38.1203 23.5713 38.1339C23.5713 38.1339 23.5443 38.1475 23.5443 38.161C23.5443 38.161 23.5443 38.161 23.5443 38.1746C23.5173 38.1746 23.5173 38.2154 23.4904 38.2289C23.4904 38.2289 23.4904 38.2154 23.4769 38.2018C23.5443 38.1475 23.5848 38.0524 23.6117 37.9573V37.9709ZM23.6522 38.1475C23.6522 38.1475 23.6522 38.1203 23.6522 38.1067C23.6522 38.1067 23.6657 38.0796 23.6657 38.066C23.6657 38.0524 23.6657 38.0252 23.6792 38.0117C23.814 38.0388 23.9623 38.066 24.0837 38.1067C24.1107 38.1067 24.1376 38.1203 24.1646 38.1339C24.1916 38.1339 24.2051 38.1746 24.232 38.1882C24.259 38.1882 24.259 38.1882 24.2725 38.1882C24.3129 38.1475 24.259 38.0796 24.2051 38.0796C24.2051 38.0524 24.2051 38.0388 24.2051 38.0252C24.2051 38.0252 24.2455 38.0252 24.2725 38.0252C24.3534 38.0388 24.4343 38.0796 24.4882 38.1067C24.4748 38.2018 24.4208 38.2697 24.3804 38.3512C24.3534 38.3783 24.3399 38.4462 24.286 38.4598C24.259 38.4598 24.1916 38.4598 24.1511 38.4462C24.1107 38.4462 24.0702 38.4327 24.0298 38.4191C23.9893 38.4191 23.9488 38.3919 23.9219 38.3783C23.8005 38.3376 23.6926 38.2833 23.5848 38.2289C23.5848 38.1882 23.6117 38.1746 23.6252 38.1475H23.6522ZM24.2455 37.9302C24.3669 37.9302 24.4613 37.9709 24.5422 38.0252C24.5422 38.0252 24.5422 38.0388 24.5422 38.0524C24.4478 38.0117 24.3534 37.9845 24.2455 37.9573C24.2455 37.9573 24.2455 37.9438 24.2455 37.9302ZM24.3129 37.645C24.3264 37.5228 24.3534 37.4006 24.3804 37.2648C24.4073 37.1561 24.4208 37.061 24.4748 36.966C24.4748 36.9388 24.5017 36.9252 24.5287 36.8981C24.5287 36.8981 24.5287 36.8709 24.5422 36.8709C24.5691 36.8438 24.5961 36.8302 24.6366 36.803H24.6501C24.677 36.7759 24.731 36.7759 24.7714 36.7487C24.7714 36.8438 24.7714 36.9388 24.7984 37.0203C24.7984 37.061 24.8254 37.1154 24.8388 37.1561C24.7714 37.1968 24.704 37.2512 24.6366 37.2919C24.6231 37.2783 24.6366 37.2376 24.6096 37.224C24.6096 37.2512 24.5826 37.2647 24.5826 37.2919C24.5826 37.3055 24.5961 37.3462 24.5961 37.3598C24.5961 37.387 24.5961 37.4956 24.5961 37.5364C24.5961 37.5635 24.5691 37.6722 24.5691 37.7265C24.5691 37.7536 24.5691 37.7672 24.5691 37.808C24.4882 37.7808 24.3669 37.7536 24.286 37.7401C24.286 37.7129 24.286 37.6722 24.3129 37.645ZM24.8523 37.2104C24.8523 37.2104 24.9332 37.2376 24.9198 37.2919C24.9198 37.3055 24.8388 37.3734 24.8119 37.387H24.7849C24.7849 37.3598 24.8119 37.3462 24.8119 37.3191C24.8119 37.2919 24.8119 37.2512 24.8119 37.2376C24.8119 37.224 24.8388 37.224 24.8523 37.2104ZM24.9602 36.6672C24.9737 36.7623 24.9872 36.8573 25.0007 36.9388C25.0007 36.966 25.0276 36.9931 25.0276 37.0203C25.0007 37.0475 24.9737 37.061 24.9332 37.0746C24.8928 36.966 24.8793 36.8302 24.8793 36.6944C24.9063 36.6944 24.9332 36.6672 24.9602 36.6536V36.6672ZM24.9332 35.8931C24.9332 35.8931 24.9467 35.8252 24.9602 35.7845C24.9602 35.7709 24.9737 35.7573 24.9872 35.7302C25.0546 35.6623 25.149 35.6215 25.2299 35.5808C25.2299 35.5536 25.2299 35.5401 25.2299 35.5129C25.2299 35.5265 25.2299 35.5536 25.2299 35.5808C25.3108 35.5944 25.3513 35.6351 25.4052 35.6759C25.4591 35.7166 25.5131 35.7845 25.5266 35.8524C25.5266 35.8931 25.5266 35.9203 25.5401 35.961C25.5535 35.9882 25.5805 36.0154 25.5805 36.0561C25.5805 36.2191 25.4861 36.4092 25.3782 36.4907C25.3378 36.5314 25.2569 36.5722 25.176 36.5586C25.1085 36.5586 25.0411 36.5043 25.0007 36.4635C24.9602 36.4228 24.9332 36.3685 24.8928 36.3141C24.8523 36.2327 24.8254 36.1512 24.8254 36.0561C24.8254 35.9882 24.8658 35.9475 24.8793 35.866L24.9332 35.8931ZM25.5401 36.7487C25.5401 36.7487 25.54 36.6944 25.567 36.6672C25.594 36.6672 25.621 36.6944 25.6479 36.708C25.621 36.7351 25.5805 36.7351 25.5535 36.7623L25.5401 36.7487ZM25.4861 36.5722C25.4861 36.5722 25.4861 36.5314 25.4861 36.5178C25.4861 36.4907 25.4861 36.4771 25.4861 36.4635C25.4861 36.5314 25.5131 36.5857 25.5131 36.6401C25.5131 36.6944 25.4861 36.7487 25.4591 36.7894C25.3243 36.8573 25.2164 36.9252 25.0951 36.9931C25.0681 36.9252 25.0411 36.8302 25.0276 36.7351C25.0276 36.6944 25.0141 36.6536 25.0276 36.6265C25.0276 36.5993 25.0411 36.5722 25.0411 36.545C25.0681 36.5586 25.0816 36.5857 25.1085 36.5993C25.149 36.6401 25.2029 36.6808 25.2838 36.6808C25.3108 36.6808 25.3378 36.6808 25.3647 36.6808C25.3917 36.6808 25.4322 36.6808 25.4591 36.6808C25.4726 36.6808 25.4996 36.6401 25.4996 36.6129C25.4996 36.6129 25.4996 36.5993 25.4996 36.5857L25.4861 36.5722ZM25.7288 36.8709C25.7288 36.8709 25.6344 36.966 25.5805 37.0067C25.4726 37.0882 25.3647 37.1697 25.2434 37.2648C25.2164 37.2783 25.2029 37.3055 25.176 37.3327C25.1355 37.3734 25.0951 37.4006 25.1085 37.4549C25.149 37.4549 25.176 37.4141 25.2029 37.387C25.2973 37.3055 25.3782 37.224 25.4591 37.1425C25.4591 37.1425 25.4591 37.1425 25.4726 37.1289C25.4726 37.1289 25.5805 37.0475 25.6344 37.0067C25.6614 36.9796 25.6884 36.9524 25.7288 36.9388H25.7423C25.7423 36.9388 25.7963 36.8981 25.8367 36.8845C25.8502 36.8845 25.8772 36.8845 25.8906 36.8709C25.9311 36.8709 25.985 36.8166 26.012 36.8709C25.985 36.8981 25.9311 36.9117 25.9041 36.9388C25.8502 36.9796 25.7963 37.0067 25.7558 37.0475C25.7423 37.061 25.7288 37.0746 25.7019 37.0882C25.6344 37.1425 25.5805 37.2104 25.5131 37.2783C25.4861 37.3191 25.4457 37.3598 25.4187 37.387C25.3647 37.4685 25.2973 37.5499 25.2434 37.6314C25.1355 37.7944 25.0276 37.9573 24.8928 38.1067C24.8523 38.1475 24.7444 38.2018 24.731 38.1067C24.7579 38.1067 24.7714 38.1067 24.7984 38.1067C24.8388 38.0796 24.8793 38.0388 24.9063 37.9981C24.9198 37.9709 24.9602 37.9438 24.9467 37.9166C24.9063 37.9166 24.8928 37.9573 24.8658 37.9845C24.8254 37.9981 24.8119 38.0252 24.7579 38.0252C24.6635 38.0252 24.6096 37.9709 24.6096 37.8487C24.6096 37.8215 24.6096 37.6993 24.6096 37.6586C24.6231 37.6178 24.6635 37.5771 24.704 37.5499C24.7714 37.4956 24.8388 37.4549 24.9063 37.4006C24.9332 37.387 24.9467 37.3598 24.9737 37.3462C25.0141 37.3191 25.0681 37.2783 25.1085 37.2512C25.2164 37.1833 25.3378 37.1154 25.4591 37.0475C25.4591 37.0475 25.567 37.0067 25.621 36.9796C25.621 36.9796 25.6884 36.9388 25.7288 36.9252V36.8709ZM25.7153 38.3104V38.2697C25.7153 38.2697 25.7153 38.2425 25.7153 38.2289C25.7153 38.2289 25.7153 38.2154 25.7153 38.2018C25.7153 38.2289 25.7153 38.2561 25.7153 38.2968C25.7153 38.3104 25.7153 38.3376 25.7153 38.3512C25.7153 38.3512 25.7153 38.3376 25.7153 38.324V38.3104ZM25.122 40.7413C25.122 40.7413 25.0681 40.8499 25.0276 40.9043C25.0007 40.9586 24.9602 40.9993 24.9198 41.0401C24.8388 41.1215 24.7714 41.2166 24.704 41.3117C24.6366 41.3931 24.5691 41.4746 24.5152 41.5561C24.5152 41.5561 24.5152 41.5833 24.4882 41.5833C24.4882 41.5425 24.4882 41.5018 24.4748 41.4475C24.4613 41.3117 24.4613 41.1487 24.4613 41.0129C24.4613 40.9043 24.5017 40.8499 24.5287 40.7685C24.5287 40.7413 24.5422 40.7141 24.5557 40.687C24.6096 40.5647 24.6635 40.4425 24.7175 40.3339C24.7579 40.2388 24.8254 40.1573 24.8793 40.0759C24.9872 39.9129 25.0951 39.7364 25.1894 39.5598C25.2569 39.424 25.3243 39.2746 25.3917 39.1388C25.4322 39.0438 25.4861 38.9487 25.5266 38.8672C25.567 38.7993 25.6075 38.7314 25.6614 38.6771C25.6614 38.6771 25.6614 38.6771 25.6749 38.6771C25.7019 38.6771 25.6749 38.7586 25.6749 38.7722C25.6749 38.7993 25.6614 38.8536 25.6479 38.8672C25.5805 39.166 25.4861 39.4512 25.3917 39.7228C25.3782 39.7771 25.3513 39.8314 25.3243 39.8857C25.3108 39.9401 25.2973 40.008 25.2704 40.0487C25.2704 40.0759 25.2434 40.0894 25.2299 40.1166C25.2164 40.1438 25.2029 40.1573 25.1894 40.1845C25.1625 40.2252 25.1355 40.2796 25.122 40.3203C25.095 40.3475 25.0816 40.3746 25.0681 40.4018C25.0411 40.4561 25.0007 40.5104 24.9872 40.5783C24.9872 40.6055 24.9602 40.6598 24.9872 40.6734C25.0141 40.6734 25.0546 40.6191 25.0681 40.6055C25.095 40.5647 25.1085 40.5376 25.122 40.5104C25.2299 40.3067 25.3108 40.0759 25.4052 39.8586C25.4861 39.6277 25.567 39.3968 25.621 39.1524C25.6344 39.0981 25.6614 39.0302 25.6749 38.9623C25.6749 38.9487 25.6749 38.908 25.7019 38.908C25.7019 38.9894 25.6884 39.0573 25.6749 39.1252C25.6749 39.1931 25.6479 39.261 25.6344 39.3289C25.594 39.4647 25.567 39.6006 25.5266 39.7228C25.4591 39.9808 25.3648 40.2117 25.2569 40.4425C25.2299 40.4968 25.2029 40.5512 25.176 40.6055C25.149 40.6598 25.122 40.7141 25.0951 40.7685L25.122 40.7413ZM24.5557 41.9635C24.5557 41.9635 24.5961 41.882 24.6096 41.8549C24.6231 41.8141 24.6501 41.787 24.677 41.7462C24.7445 41.6376 24.8119 41.5425 24.8928 41.4339C24.9197 41.3931 24.9467 41.366 24.9602 41.3388C24.9872 41.2845 25.0276 41.2438 25.0681 41.1894C25.0681 41.1759 25.0951 41.1487 25.1085 41.1487C25.122 41.1759 25.1085 41.203 25.1085 41.2166C25.0816 41.3524 25.0546 41.461 25.0141 41.5833C25.0141 41.5833 24.9467 41.6919 24.9872 41.7191C25.0141 41.7191 25.0411 41.6647 25.0411 41.6376C25.0816 41.5425 25.122 41.4475 25.149 41.3388C25.176 41.2302 25.2164 41.1351 25.2569 41.0401C25.2704 40.9993 25.2838 40.9722 25.2973 40.945C25.2973 40.9314 25.3378 40.9178 25.3378 40.9043C25.3378 40.9586 25.3378 41.0265 25.3108 41.0944C25.2973 41.1894 25.2704 41.2845 25.2569 41.3796C25.2299 41.4882 25.2029 41.5968 25.176 41.7055C25.1625 41.7598 25.149 41.8141 25.1355 41.8685C25.0816 42.0178 25.0276 42.1672 24.9737 42.3166C24.9737 42.3438 24.9602 42.3573 24.9467 42.3845C24.9332 42.4252 24.9197 42.466 24.8928 42.466C24.8793 42.466 24.8388 42.466 24.8119 42.466C24.7175 42.4524 24.6501 42.4117 24.5826 42.3573C24.5826 42.303 24.5557 42.2487 24.5557 42.1944C24.5557 42.1129 24.5287 42.045 24.5557 41.9771V41.9635ZM24.3938 41.3252C24.3938 41.4475 24.3938 41.5697 24.4073 41.6919C24.3129 41.6783 24.1916 41.6648 24.0972 41.6919C24.0972 41.6919 24.0702 41.7055 24.0702 41.7191C24.0702 41.7598 24.0837 41.787 24.1107 41.8006C24.1241 41.8006 24.1511 41.8006 24.1646 41.8141C24.2051 41.8141 24.232 41.787 24.286 41.8141C24.2995 41.8141 24.3129 41.8413 24.3399 41.8413C24.3669 41.8413 24.3804 41.8413 24.3938 41.8549C24.4343 41.882 24.4478 41.9228 24.4748 41.9499C24.4882 42.0314 24.5017 42.1401 24.5152 42.2351C24.5287 42.3166 24.5422 42.3845 24.5691 42.4524C24.5691 42.4524 24.5422 42.4524 24.5152 42.4524C24.4613 42.4524 24.4073 42.4524 24.3534 42.4524C24.3129 42.4524 24.2725 42.4524 24.2185 42.4524C24.1241 42.1129 24.0432 41.7598 23.9623 41.4067C24.0028 41.3931 24.0567 41.3796 24.0972 41.366C24.1781 41.366 24.259 41.3388 24.3399 41.3388C24.3534 41.3388 24.3804 41.3388 24.4073 41.3388L24.3938 41.3252ZM24.9737 38.3919C24.9737 38.3919 24.9467 38.3647 24.9332 38.324C24.9332 38.2833 24.9063 38.2289 24.9467 38.2289C24.9602 38.2697 24.9737 38.3376 24.9737 38.3919ZM24.9737 38.1746C24.9737 38.1746 24.9197 38.2154 24.8793 38.1882C24.8793 38.161 24.9197 38.161 24.9332 38.1475C24.9602 38.1339 24.9737 38.1203 24.9872 38.1067C25.0276 38.1067 25.0681 38.0796 25.0951 38.0524C25.0546 38.0931 25.0007 38.1339 24.9467 38.1746H24.9737ZM25.0951 38.3783C25.0951 38.3783 25.0951 38.2833 25.0951 38.2425C25.1085 38.2018 25.176 38.1746 25.2299 38.161C25.3108 38.161 25.3917 38.1882 25.4187 38.2425C25.4457 38.324 25.4187 38.4055 25.3513 38.4462C25.2569 38.5006 25.1085 38.4462 25.0816 38.3783H25.0951ZM24.8523 39.7228C24.8523 39.7228 24.7984 39.7907 24.7714 39.8314C24.731 39.9129 24.6905 39.9944 24.6635 40.0894C24.5826 40.2796 24.5152 40.4968 24.4343 40.687C24.4343 40.7006 24.4343 40.7277 24.4073 40.7413C24.4073 40.7141 24.4073 40.687 24.4073 40.6598C24.4073 40.5104 24.4073 40.3475 24.4073 40.1981C24.4073 40.1438 24.4208 40.0894 24.4208 40.0351C24.4208 39.9944 24.4208 39.9536 24.4208 39.9129C24.4208 39.8722 24.4208 39.845 24.4478 39.8043C24.4478 39.7635 24.4613 39.7364 24.4748 39.7092C24.4748 39.6956 24.4748 39.682 24.4882 39.6549C24.5287 39.5055 24.6096 39.3833 24.6905 39.2746C24.7579 39.166 24.8388 39.0709 24.9198 38.9894C25.0276 38.8672 25.1355 38.7722 25.2569 38.6771C25.3243 38.6228 25.4052 38.5685 25.4591 38.5006C25.4861 38.4734 25.4861 38.4462 25.5131 38.4327C25.5131 38.4598 25.5131 38.487 25.4861 38.5141C25.4457 38.5685 25.4052 38.6364 25.3513 38.6907C25.2704 38.8129 25.176 38.9215 25.0951 39.0573C25.0546 39.1252 25.0141 39.1931 24.9872 39.261C24.8793 39.4512 24.7714 39.6685 24.6635 39.8586C24.6231 39.9265 24.5961 39.9944 24.5691 40.0759C24.5961 40.0759 24.5961 40.0487 24.6096 40.0351C24.7714 39.7771 24.9197 39.4919 25.0816 39.2339C25.1625 39.0981 25.2569 38.9623 25.3647 38.8401C25.4457 38.745 25.4996 38.6499 25.567 38.5413C25.594 38.5006 25.6075 38.4598 25.6344 38.4327C25.6614 38.4191 25.6749 38.4734 25.6749 38.5141C25.6749 38.5277 25.6479 38.5549 25.6479 38.582C25.621 38.6499 25.594 38.7178 25.5535 38.7857C25.5131 38.8672 25.4591 38.9623 25.4187 39.0438C25.3378 39.2339 25.2299 39.3833 25.149 39.5598C25.0951 39.6413 25.0546 39.7228 25.0141 39.8178C24.8793 40.0487 24.7579 40.2796 24.6366 40.5104C24.6366 40.524 24.6231 40.5648 24.5961 40.5648C24.5961 40.5376 24.6096 40.5104 24.6231 40.4833C24.677 40.361 24.731 40.2252 24.7849 40.1166C24.8254 40.0351 24.8523 39.9672 24.8793 39.8586C24.8793 39.8178 24.9063 39.7771 24.8793 39.7499L24.8523 39.7228ZM25.5131 38.0524C25.5131 38.0524 25.5805 38.0252 25.6075 38.0117C25.6075 38.0117 25.6075 38.0388 25.594 38.0388C25.567 38.0796 25.567 38.1475 25.5266 38.1746C25.4996 38.1882 25.4726 38.1746 25.4322 38.1746C25.3647 38.1067 25.2164 38.1067 25.1355 38.1475C25.1085 38.161 25.0816 38.1882 25.0411 38.1746C25.0411 38.1475 25.0816 38.1339 25.1085 38.1067C25.1625 38.0796 25.2029 38.0388 25.2704 38.0117C25.2973 38.0117 25.3243 37.9845 25.3647 37.9845C25.3647 38.0252 25.3917 38.0524 25.4457 38.0388C25.4457 38.0388 25.4726 38.0388 25.4861 38.0252C25.4861 38.0252 25.5131 38.0252 25.5266 38.0117L25.5131 38.0524ZM24.7714 38.4055C24.7714 38.4055 24.7714 38.2833 24.7714 38.2289C24.7714 38.2833 24.7714 38.3512 24.7714 38.4055ZM24.5152 38.3783C24.5152 38.3783 24.5152 38.3376 24.5152 38.324C24.5152 38.2833 24.5422 38.2425 24.5691 38.2154C24.5826 38.2425 24.5692 38.2833 24.5826 38.324C24.5826 38.3783 24.5961 38.4462 24.5961 38.5006C24.5961 38.5413 24.5961 38.582 24.5826 38.6092C24.5692 38.6364 24.5422 38.6771 24.5287 38.7043C24.5287 38.5956 24.5017 38.487 24.5287 38.3783H24.5152ZM24.5557 38.7586C24.5557 38.7586 24.5826 38.7043 24.5961 38.6771C24.6231 38.6092 24.6501 38.5685 24.6905 38.5141C24.7175 38.487 24.731 38.4598 24.7579 38.4327C24.8254 38.4462 24.9198 38.4598 25.0007 38.4598C25.0276 38.4598 25.0546 38.4598 25.0816 38.4598C25.1085 38.4598 25.122 38.487 25.1625 38.5006C25.2029 38.5006 25.2299 38.5006 25.2838 38.5006C25.2569 38.5549 25.2029 38.582 25.1625 38.6228C25.122 38.6635 25.0816 38.7043 25.0411 38.745C24.9602 38.8265 24.8793 38.908 24.8119 39.003C24.7445 39.0981 24.677 39.1931 24.5961 39.2882C24.5422 39.3561 24.5017 39.4376 24.4613 39.5191C24.4613 39.5462 24.4343 39.5734 24.4208 39.587C24.4208 39.4376 24.4343 39.2746 24.4613 39.1388C24.4613 39.0709 24.4882 39.003 24.5152 38.9351C24.5287 38.8672 24.5422 38.7993 24.5691 38.745L24.5557 38.7586ZM24.2994 40.3067C24.2994 40.4289 24.2995 40.5512 24.286 40.687C24.286 40.7413 24.286 40.782 24.286 40.8364C24.286 40.8771 24.286 40.9314 24.286 40.9722C24.2725 40.9722 24.259 40.945 24.2185 40.9586C24.2455 40.7141 24.2725 40.4697 24.2994 40.2252C24.2994 40.2524 24.2994 40.2796 24.2994 40.3067ZM24.3534 40.1709C24.3534 40.1709 24.2995 40.1709 24.2725 40.1573C24.2725 39.8722 24.2725 39.6006 24.286 39.3697C24.286 39.3018 24.286 39.2339 24.286 39.166C24.286 39.0981 24.286 39.0438 24.286 38.9759C24.286 38.8265 24.286 38.6907 24.2994 38.5277C24.3399 38.5141 24.3669 38.487 24.3938 38.4598C24.4208 38.5277 24.3938 38.6092 24.3938 38.6907C24.3938 38.7722 24.4073 38.8536 24.3938 38.9215C24.3938 38.9487 24.3804 38.9759 24.3669 39.003C24.3669 39.0302 24.3669 39.0573 24.3399 39.0709C24.3399 39.1117 24.3399 39.1524 24.3129 39.1931V39.2203C24.3129 39.2203 24.3129 39.2203 24.3129 39.2339C24.2725 39.4919 24.2995 39.8314 24.286 40.1709H24.3534ZM26.0794 36.9796C26.0794 36.9796 26.0929 37.0203 26.1064 37.0339C26.1334 37.1289 26.1469 37.224 26.1603 37.3191C26.1603 37.3598 26.1873 37.4141 26.1873 37.4685C26.1873 37.5228 26.2143 37.5635 26.2143 37.6043C26.2008 37.6043 26.1738 37.6043 26.1603 37.6043C26.066 37.6043 25.9311 37.6043 25.8232 37.645V37.6314C25.8232 37.6314 25.8232 37.6314 25.8232 37.6178C25.8232 37.5771 25.8232 37.5771 25.8232 37.5499C25.8232 37.5228 25.8232 37.482 25.8232 37.4956C25.8232 37.4549 25.7828 37.4006 25.7693 37.4413C25.7693 37.4549 25.7693 37.482 25.7693 37.482C25.7693 37.5635 25.7693 37.5635 25.7693 37.645C25.7693 37.6722 25.7693 37.8351 25.7693 37.8623C25.7558 37.8623 25.7288 37.8623 25.7153 37.8623C25.6884 37.8623 25.6614 37.8759 25.6479 37.8894C25.621 37.8894 25.5805 37.903 25.5401 37.8894C25.4996 37.8894 25.4726 37.8759 25.4322 37.8623C25.4052 37.8623 25.3782 37.8215 25.3513 37.8215C25.2704 37.7944 25.2569 37.8759 25.176 37.8623C25.2029 37.7808 25.2569 37.7129 25.2973 37.645C25.3513 37.5364 25.4322 37.4549 25.4996 37.3598C25.4996 37.3598 25.5535 37.2919 25.594 37.2512C25.6344 37.2104 25.6749 37.1561 25.7153 37.1154C25.7288 37.1154 25.7423 37.0882 25.7693 37.0746C25.7558 37.1561 25.7154 37.2104 25.6749 37.2512C25.6614 37.2648 25.6479 37.2919 25.6344 37.2919C25.621 37.2919 25.594 37.3055 25.594 37.3327C25.594 37.3327 25.6479 37.4006 25.6749 37.3734C25.7019 37.3462 25.7423 37.2919 25.7693 37.2376C25.8502 37.1018 25.9446 36.9524 26.066 36.8709C26.0929 36.8573 26.1199 36.8981 26.1199 36.9252L26.0794 36.9796ZM26.2547 37.7401C26.2547 37.7401 26.2008 37.7401 26.1738 37.7401C26.1738 37.7129 26.1738 37.6993 26.1603 37.6722C26.1738 37.6722 26.2008 37.645 26.2278 37.6586C26.2278 37.6857 26.2413 37.7129 26.2547 37.7265V37.7401ZM26.2682 37.7808H26.2817C26.2817 37.7944 26.2143 37.808 26.1873 37.808C26.0794 37.8351 25.9716 37.8894 25.8906 37.9302C25.8637 37.9438 25.8502 37.9709 25.8232 37.9573C25.8232 37.9438 25.8502 37.9302 25.8637 37.9166C25.8772 37.9166 25.9041 37.903 25.9176 37.8894C25.985 37.8623 26.0525 37.8215 26.1334 37.7944C26.1738 37.7944 26.2143 37.7808 26.2547 37.7536L26.2682 37.7808ZM26.2952 38.487C26.3626 38.6771 26.4166 38.8672 26.4705 39.0845C26.4705 39.1117 26.4975 39.166 26.4975 39.1931C26.4975 39.2203 26.4031 39.2475 26.3626 39.2475C26.3357 39.2475 26.3087 39.2475 26.2952 39.2475C26.2817 39.2475 26.2682 39.1931 26.2547 39.166C26.1873 39.0302 26.0525 38.6092 25.985 38.4598C25.9581 38.4055 25.9716 38.3512 25.9581 38.2968C25.9581 38.2561 25.9581 38.2289 25.9581 38.1067C26.0255 38.0796 26.1199 38.0524 26.2143 38.0524C26.2143 38.1067 26.2278 38.1203 26.2413 38.1746C26.2413 38.2154 26.2413 38.2154 26.2413 38.2561V38.3376C26.2413 38.3376 26.2547 38.3783 26.2682 38.4055C26.2682 38.4327 26.2952 38.4598 26.3087 38.5006L26.2952 38.487ZM26.5379 39.1931C26.5379 39.1931 26.5379 39.2475 26.511 39.261C26.457 39.2882 26.3626 39.3154 26.2817 39.3154C26.2547 39.3154 26.1873 39.3154 26.2143 39.2746C26.3357 39.3018 26.484 39.2746 26.5244 39.1931H26.5379ZM26.5649 39.2746C26.5649 39.2746 26.6053 39.2882 26.6053 39.3154C26.6053 39.3425 26.5649 39.3289 26.5379 39.3425C26.5244 39.3425 26.511 39.3697 26.4975 39.3697C26.4975 39.3697 26.484 39.3697 26.4705 39.3697C26.457 39.3697 26.4435 39.3697 26.43 39.3833C26.43 39.3833 26.4031 39.3833 26.3896 39.3833C26.3761 39.3833 26.3626 39.3833 26.3491 39.4104C26.3222 39.4104 26.3087 39.4104 26.2817 39.424C26.2547 39.424 26.2143 39.3968 26.2413 39.3697C26.2413 39.3561 26.3087 39.3561 26.3356 39.3561C26.3626 39.3561 26.4031 39.3561 26.43 39.3289C26.484 39.3154 26.5109 39.2746 26.5379 39.2746H26.5649ZM26.6188 39.3697C26.7402 39.3968 26.8481 39.4512 26.9559 39.4919C27.0234 39.5055 27.0908 39.5327 27.1582 39.5734C27.1582 39.5734 27.1852 39.587 27.1852 39.6006C27.2122 39.6006 27.2256 39.6141 27.2391 39.6277C27.2391 39.6277 27.2661 39.6277 27.2526 39.6413C27.2391 39.6413 27.2256 39.6413 27.1987 39.6277C27.1043 39.5734 26.9964 39.5191 26.8616 39.5055C26.875 39.5191 26.902 39.5191 26.929 39.5327C27.0503 39.5598 27.1582 39.6413 27.2526 39.6956C27.2661 39.6956 27.2931 39.7092 27.2931 39.7364C27.2796 39.7364 27.2526 39.7364 27.2391 39.7364C27.1312 39.6549 27.0234 39.5734 26.8616 39.5462C26.8616 39.5734 26.8885 39.5734 26.902 39.587C26.9829 39.6006 27.0503 39.6277 27.1178 39.682C27.1447 39.682 27.1582 39.7092 27.1852 39.7228C27.2122 39.7228 27.2391 39.7499 27.2526 39.7635C27.2122 39.7907 27.1717 39.7635 27.1313 39.7364C27.1043 39.7228 27.0773 39.7092 27.0503 39.6956C26.9964 39.6685 26.9155 39.6549 26.8481 39.6413C26.8076 39.6413 26.7672 39.6413 26.7402 39.6277C26.7132 39.6277 26.6863 39.6006 26.6458 39.6006C26.6188 39.6413 26.6728 39.6277 26.6997 39.6413H26.7132C26.7537 39.6413 26.8211 39.6413 26.875 39.6549C26.9155 39.6549 26.9694 39.682 26.9694 39.6956C26.9694 39.7364 26.8346 39.6956 26.7941 39.6956C26.7132 39.6956 26.6593 39.6956 26.5784 39.6956C26.5244 39.6956 26.457 39.6685 26.43 39.6277L26.4166 39.587C26.4166 39.5734 26.4166 39.5462 26.4166 39.5191C26.4166 39.5055 26.3896 39.4919 26.4031 39.4783C26.4031 39.4647 26.4031 39.4783 26.4435 39.4783C26.4435 39.4783 26.4435 39.4783 26.457 39.4783C26.457 39.4783 26.484 39.4783 26.4975 39.4783C26.511 39.4783 26.5244 39.4512 26.5514 39.4512C26.5784 39.4376 26.5919 39.4104 26.6188 39.3968V39.3697ZM27.1313 39.5191C27.1313 39.5191 27.1717 39.5191 27.2122 39.5327C27.2391 39.5327 27.2661 39.5462 27.2796 39.5598C27.2931 39.5598 27.347 39.6277 27.3605 39.6549C27.3605 39.682 27.3605 39.7228 27.347 39.7499C27.32 39.7771 27.2796 39.7907 27.2391 39.8178C27.2256 39.8178 27.2122 39.8178 27.1987 39.845C27.1717 39.845 27.1717 39.8857 27.1447 39.8857C27.1447 39.8586 27.1582 39.8586 27.1717 39.8314C27.1717 39.8314 27.1987 39.8043 27.1987 39.7907C27.2391 39.7907 27.3335 39.7635 27.347 39.7228C27.347 39.6956 27.32 39.6956 27.3065 39.6685C27.3065 39.6685 27.3065 39.6413 27.2931 39.6413C27.2796 39.6141 27.2391 39.6141 27.2122 39.587C27.2122 39.587 27.1852 39.5734 27.1717 39.5598C27.1717 39.5598 27.1447 39.5462 27.1447 39.5327L27.1313 39.5191ZM27.3605 39.5598C27.3605 39.5598 27.4144 39.6006 27.4549 39.6141C27.4819 39.6141 27.5223 39.6141 27.5493 39.6141C27.5762 39.6141 27.5897 39.6549 27.6032 39.6685C27.6032 39.6685 27.6302 39.6956 27.6302 39.7092C27.6302 39.7228 27.6032 39.7092 27.5897 39.7228C27.5493 39.7364 27.5223 39.7771 27.4953 39.8043C27.4684 39.8314 27.4144 39.8586 27.374 39.8586C27.347 39.8586 27.32 39.8586 27.2931 39.8586C27.2661 39.8586 27.2391 39.8722 27.2122 39.8586C27.2256 39.8314 27.2661 39.8314 27.2931 39.8178C27.347 39.7907 27.4279 39.7635 27.4279 39.6685C27.4279 39.6277 27.3875 39.587 27.374 39.5462L27.3605 39.5598ZM27.6706 39.7907C27.6706 39.7907 27.7515 39.8178 27.765 39.8586C27.8324 39.9672 27.8459 40.1302 27.8999 40.266C27.8999 40.2931 27.9268 40.3203 27.9268 40.3475C27.9538 40.4425 27.9538 40.5512 27.9538 40.6598C27.9538 40.7685 27.9538 40.8907 27.9538 40.9993C27.9538 41.1759 27.9943 41.3524 27.9943 41.5425C27.9943 41.5697 27.9943 41.5968 27.9943 41.6104C27.9808 41.6104 27.9808 41.5833 27.9808 41.5697C27.9673 41.5289 27.9538 41.4882 27.9403 41.4339C27.9403 41.3931 27.9403 41.366 27.9403 41.3252C27.9403 41.2166 27.9403 41.1215 27.8999 41.0265C27.8999 41.0129 27.8594 40.9722 27.8594 40.9586C27.8594 40.945 27.8729 40.9314 27.8729 40.9043C27.8999 40.782 27.8055 40.7006 27.819 40.5783C27.819 40.5376 27.819 40.4833 27.819 40.4425C27.819 40.3067 27.765 40.2117 27.7111 40.1302C27.7381 40.103 27.7785 40.0759 27.792 40.0215C27.792 39.9808 27.792 39.9129 27.792 39.8722C27.792 39.845 27.765 39.8043 27.7515 39.7907C27.6976 39.7635 27.6302 39.7907 27.5897 39.8043C27.5897 39.8043 27.5762 39.8178 27.5628 39.8314C27.5493 39.8314 27.5223 39.845 27.5088 39.8586C27.5628 39.8178 27.6032 39.7635 27.6841 39.7635L27.6706 39.7907ZM27.3335 42.1265C27.3335 42.1265 27.374 42.0043 27.374 41.9228C27.374 41.8549 27.347 41.787 27.3605 41.7327C27.374 41.6647 27.4144 41.5968 27.4549 41.5289C27.4684 41.4882 27.5088 41.4339 27.5088 41.3796C27.5088 41.3524 27.5088 41.3117 27.5088 41.2845C27.5088 41.2438 27.4684 41.2166 27.4684 41.1894C27.4684 41.1623 27.4819 41.1351 27.4953 41.108C27.5088 41.0944 27.5358 41.0808 27.5493 41.0536C27.5493 41.0536 27.5493 41.0265 27.5628 41.0265C27.5628 40.9993 27.5897 40.9722 27.6032 40.9314C27.6032 40.9993 27.5762 41.0944 27.6032 41.1623C27.6032 41.1623 27.6032 41.1894 27.6167 41.203C27.6167 41.203 27.6167 41.2302 27.6302 41.2438C27.6571 41.2845 27.6841 41.3117 27.6976 41.366C27.6976 41.3931 27.6976 41.4339 27.6976 41.4475C27.6976 41.461 27.6841 41.4882 27.6706 41.5154C27.6706 41.5561 27.6841 41.5968 27.6706 41.6376C27.6706 41.6647 27.6302 41.6919 27.6302 41.7191C27.6302 41.7598 27.6302 41.8141 27.6302 41.8549C27.6302 41.882 27.6302 41.9092 27.6167 41.9364C27.6167 42.0043 27.6032 42.0722 27.5628 42.1129C27.5628 42.1129 27.5358 42.1265 27.5223 42.1401C27.5088 42.1401 27.4953 42.1672 27.4818 42.1672C27.4684 42.1536 27.4818 42.1265 27.4818 42.1129C27.5088 42.0314 27.6167 41.9228 27.5358 41.8413C27.5358 41.8956 27.5358 41.9499 27.5088 41.9907C27.5088 42.0043 27.4684 42.0314 27.4549 42.045C27.4549 42.045 27.4549 42.0586 27.4414 42.0722C27.4279 42.1265 27.4414 42.1672 27.4144 42.2215C27.3875 42.2894 27.2931 42.3166 27.2122 42.2759C27.2526 42.2487 27.3065 42.208 27.3335 42.1536V42.1265ZM26.929 41.5561C26.929 41.5561 26.8885 41.5968 26.902 41.624C26.8615 41.5697 26.902 41.5018 26.902 41.4203C26.902 41.3524 26.8211 41.2981 26.8616 41.2166C26.8885 41.2302 26.8885 41.2573 26.902 41.2845C26.902 41.2845 26.902 41.3117 26.9155 41.3117C26.9155 41.3117 26.9155 41.3388 26.9155 41.3524C26.9155 41.3796 26.9425 41.3931 26.9425 41.4067C26.9425 41.4339 26.9155 41.461 26.9155 41.5018C26.9155 41.5154 26.9155 41.5425 26.9155 41.5697L26.929 41.5561ZM26.7267 41.8685C26.7267 41.8685 26.7537 41.7734 26.7537 41.7191C26.7537 41.6783 26.7537 41.6512 26.7537 41.6104C26.7537 41.5018 26.6458 41.4067 26.6728 41.2709C26.6862 41.2709 26.6728 41.2981 26.6728 41.3117C26.6997 41.3117 26.6997 41.3117 26.7132 41.2981C26.7402 41.1894 26.6458 41.108 26.6728 40.9993C26.6862 41.0129 26.6997 41.0401 26.7267 41.0536C26.7267 41.0808 26.7537 41.1215 26.7537 41.1487C26.7537 41.1759 26.7402 41.1894 26.7402 41.2166C26.7402 41.2845 26.7806 41.3117 26.8076 41.366C26.8076 41.461 26.8076 41.5697 26.8346 41.6512C26.8481 41.6919 26.8885 41.7327 26.9155 41.7598C26.9155 41.7598 26.929 41.787 26.9425 41.8006C26.9829 41.8956 26.9559 42.0043 26.902 42.045C26.875 42.0586 26.8481 42.0722 26.8346 42.0857C26.8211 42.0993 26.8211 42.1265 26.7941 42.1401C26.7941 42.1265 26.7941 42.0857 26.7941 42.0586C26.7941 42.045 26.7806 42.0178 26.7672 42.0043C26.7402 41.9635 26.6997 41.9228 26.6997 41.8549L26.7267 41.8685ZM26.6863 42.0043C26.7132 42.045 26.7402 42.0993 26.7402 42.1672C26.7132 42.1672 26.6862 42.1672 26.6593 42.1672C26.6593 42.1265 26.6728 42.0586 26.6728 42.0178L26.6863 42.0043ZM26.6188 41.7734C26.6188 41.7734 26.6458 41.6104 26.6323 41.5289C26.6323 41.4746 26.6053 41.4203 26.5919 41.3796C26.5649 41.3117 26.511 41.2573 26.511 41.1759C26.511 41.0672 26.5784 41.0129 26.5919 40.9178C26.5919 40.8771 26.6053 40.8499 26.6188 40.7956C26.6323 40.7956 26.6188 40.8092 26.6323 40.8364C26.6323 40.8635 26.6458 40.8907 26.6593 40.9178C26.6593 40.9178 26.6593 40.945 26.6728 40.945C26.6728 40.9722 26.6593 41.0129 26.6593 41.0401C26.6593 41.0808 26.6593 41.1215 26.6593 41.1623C26.6593 41.1894 26.6593 41.203 26.6593 41.2302C26.6593 41.2845 26.6323 41.3388 26.6593 41.4067C26.6593 41.4339 26.6728 41.4746 26.6863 41.5018C26.6997 41.5561 26.7267 41.6104 26.7132 41.6919C26.7132 41.7462 26.6728 41.8141 26.6728 41.8685C26.6728 41.8277 26.6458 41.8006 26.6323 41.7734H26.6188ZM26.3896 41.6919C26.3896 41.6919 26.3896 41.624 26.3896 41.5968C26.3896 41.5968 26.3761 41.5697 26.3896 41.5561C26.3896 41.5425 26.4031 41.5289 26.4031 41.5154C26.43 41.4339 26.3491 41.366 26.3222 41.3117C26.2547 41.2166 26.2143 41.1215 26.2413 40.9586C26.2817 40.9993 26.3087 41.0536 26.3491 41.0944C26.3491 41.1759 26.3491 41.2573 26.3761 41.3252C26.3761 41.3524 26.4031 41.3796 26.43 41.4067C26.4435 41.4339 26.4705 41.4746 26.484 41.4882C26.484 41.5425 26.4705 41.5697 26.457 41.6104C26.43 41.7055 26.4435 41.8413 26.484 41.8956C26.5109 41.9228 26.5514 41.9364 26.5514 41.9771C26.5514 42.0178 26.511 42.0178 26.4975 42.045C26.457 42.0178 26.43 41.9771 26.4031 41.9228C26.4031 41.8956 26.3761 41.8413 26.3761 41.8141C26.3761 41.7734 26.4031 41.7327 26.4166 41.6919H26.3896ZM26.457 39.7771C26.457 39.7771 26.4435 39.8178 26.4435 39.845C26.4166 39.8722 26.4031 39.8993 26.3896 39.9265C26.3222 39.9265 26.2817 39.9672 26.2547 40.0351C26.2547 40.0623 26.2547 40.103 26.2547 40.1302C26.2547 40.1438 26.2547 40.1709 26.2547 40.1845C26.2547 40.2252 26.2413 40.2931 26.2143 40.3203C26.2008 40.361 26.1603 40.4018 26.1334 40.4425C26.1334 40.4425 26.1064 40.4697 26.1064 40.4833C26.0794 40.5376 26.1064 40.6327 26.1199 40.6598C26.1199 40.6734 26.1469 40.687 26.1603 40.7006C26.1603 40.7006 26.1603 40.7413 26.1603 40.7549C26.1603 40.7685 26.1603 40.7956 26.1603 40.8092C26.1603 40.8635 26.1334 40.9043 26.1334 40.945C26.1334 40.9722 26.1334 40.9993 26.1334 41.0265C26.1334 41.1351 26.1738 41.2166 26.2143 41.2981C26.2143 41.3117 26.2413 41.3252 26.2413 41.3524C26.1873 41.3252 26.1334 41.2981 26.1199 41.2438C26.0929 41.1894 26.0929 41.1215 26.0929 41.0265C26.0929 40.945 26.0525 40.8907 26.039 40.8092C26.039 40.7685 26.039 40.7277 26.0255 40.687C26.0255 40.6462 26.0255 40.6055 26.0255 40.5648C26.039 40.4561 26.066 40.3339 26.0929 40.2252C26.1064 40.1438 26.1469 40.103 26.1738 40.0215C26.2413 39.9129 26.2952 39.8043 26.3896 39.7364C26.4166 39.7364 26.4166 39.7364 26.4435 39.7228C26.4435 39.7228 26.4435 39.7364 26.4435 39.7499L26.457 39.7771ZM26.5244 40.0759C26.5244 40.0759 26.5244 40.0623 26.5244 40.0487C26.4975 40.103 26.484 40.1709 26.4705 40.2388C26.4705 40.2388 26.4705 40.2117 26.4705 40.1981C26.4705 40.1573 26.4975 40.0894 26.5244 40.0623V40.0759ZM26.2682 40.5648C26.2682 40.5648 26.3087 40.5104 26.3222 40.4697C26.3491 40.4154 26.3626 40.3475 26.3626 40.2796C26.4166 40.4561 26.3087 40.6055 26.3087 40.7549C26.3087 40.8092 26.3222 40.8499 26.3491 40.9043C26.3491 40.945 26.3896 40.9722 26.3626 41.0265C26.3222 40.9993 26.3087 40.9586 26.2817 40.9178C26.2817 40.9043 26.2547 40.8771 26.2547 40.8635C26.2278 40.7685 26.2413 40.6598 26.2547 40.5783L26.2682 40.5648ZM26.3356 40.0623C26.3356 40.0623 26.3761 40.0351 26.4031 40.0351C26.3761 40.0894 26.3626 40.1573 26.3626 40.2252C26.3626 40.2252 26.3356 40.2252 26.3222 40.1981C26.2952 40.1573 26.2952 40.0894 26.3222 40.0487L26.3356 40.0623ZM26.1873 40.4697C26.2278 40.3882 26.2817 40.3339 26.2952 40.2388C26.2952 40.2388 26.2952 40.2388 26.3087 40.2388C26.3087 40.4018 26.1738 40.4697 26.1603 40.6191C26.1334 40.5919 26.1334 40.5104 26.1603 40.4833C26.1603 40.4833 26.1603 40.4425 26.1603 40.4697C26.1603 40.4697 26.1603 40.4697 26.1603 40.4425L26.1873 40.4697ZM26.457 40.4154C26.457 40.4154 26.457 40.5104 26.457 40.5648C26.457 40.6055 26.4031 40.6462 26.4031 40.7006V40.7277V40.7549C26.4031 40.7956 26.4031 40.8364 26.4031 40.8907C26.3626 40.8228 26.3626 40.7277 26.3761 40.6462C26.3896 40.5919 26.4166 40.5376 26.4166 40.4697C26.4166 40.361 26.4166 40.2388 26.43 40.1302C26.4435 40.0759 26.484 40.0351 26.511 39.9808C26.5244 39.9808 26.5379 39.9536 26.5649 39.9536C26.6323 39.8993 26.7402 39.845 26.8616 39.8857C26.8211 39.8857 26.7672 39.8857 26.7267 39.8857C26.6188 39.9265 26.5379 39.9808 26.484 40.0894C26.484 40.1166 26.457 40.1709 26.457 40.2117C26.457 40.2796 26.4705 40.3475 26.4705 40.4154H26.457ZM27.4818 40.2524C27.4953 40.3746 27.4818 40.4833 27.4414 40.5783C27.4144 40.6326 27.374 40.687 27.3335 40.7413C27.3335 40.7549 27.347 40.8092 27.3335 40.8228C27.2796 40.8228 27.2526 40.7956 27.2122 40.782C27.2122 40.8364 27.2796 40.8499 27.32 40.8635C27.32 40.8771 27.3065 40.9043 27.2931 40.9043C27.2931 40.9043 27.2256 40.8635 27.2122 40.8635C27.2122 40.8635 27.1987 40.8499 27.1852 40.8364C27.1852 40.8907 27.2256 40.9043 27.2526 40.945C27.2526 40.9586 27.2256 40.9857 27.2122 40.9857C27.1717 40.9857 27.1447 40.9043 27.1313 40.8635C27.1043 40.8635 27.1043 40.9178 27.1043 40.945C27.0369 40.9178 27.0099 40.8499 27.0099 40.7685C27.0234 40.7006 27.1582 40.7141 27.1717 40.6462C27.1717 40.6191 27.1717 40.6055 27.1717 40.5783C27.1717 40.5647 27.1717 40.5376 27.1447 40.5376C27.1447 40.5648 27.1717 40.5919 27.1447 40.6191C27.1312 40.6191 27.1178 40.6191 27.1043 40.6191C27.0638 40.6191 27.0099 40.6327 26.9694 40.6191C26.9425 40.6191 26.929 40.6191 26.902 40.6191C26.8885 40.6191 26.8616 40.6191 26.8481 40.6191C26.8481 40.5919 26.8616 40.5648 26.8481 40.5512C26.8481 40.5783 26.8211 40.5919 26.8346 40.6327C26.8346 40.6598 26.8616 40.687 26.875 40.7006C26.9155 40.7277 26.9694 40.7277 26.9964 40.7549C26.9964 40.7685 26.9964 40.8092 26.9964 40.8228C26.9964 40.8907 26.929 40.945 26.875 40.9586C26.875 40.9314 26.8885 40.8771 26.875 40.8771C26.8616 40.8771 26.8481 40.9314 26.8346 40.945C26.8076 40.9857 26.7672 41.0129 26.7402 40.945C26.7806 40.9178 26.8211 40.8907 26.8346 40.8499C26.8211 40.8499 26.7806 40.8499 26.7537 40.8771C26.7267 40.8907 26.6997 40.9178 26.6997 40.8499C26.7537 40.8499 26.7941 40.8092 26.8211 40.7685C26.7806 40.7685 26.7402 40.7956 26.6997 40.782C26.6997 40.782 26.6997 40.7685 26.6997 40.7549C26.6188 40.6598 26.5649 40.5376 26.5649 40.3746C26.5649 40.2796 26.5919 40.1709 26.6188 40.0894C26.6323 40.0623 26.6458 40.0351 26.6593 40.008C26.6728 39.9808 26.6997 39.9536 26.7267 39.9401C26.7672 39.9265 26.8211 39.9129 26.8885 39.9129C26.9425 39.9129 26.9829 39.9401 27.0369 39.9536C27.1043 39.9672 27.1447 39.9265 27.1987 39.9129C27.2661 39.9129 27.3335 39.9265 27.374 39.9672C27.3875 39.9672 27.4009 39.9944 27.4279 40.0215C27.4684 40.0759 27.5088 40.1438 27.5223 40.2388L27.4818 40.2524ZM27.4414 41.2302C27.4414 41.2302 27.4684 41.2573 27.4684 41.2709C27.4819 41.2981 27.4819 41.4203 27.4549 41.4339C27.4549 41.2981 27.3335 41.2302 27.3605 41.0808C27.3605 41.0536 27.374 41.0129 27.3875 40.9857C27.4144 40.9178 27.4414 40.8364 27.4279 40.7549C27.4279 40.7549 27.4279 40.7413 27.4279 40.7277C27.4279 40.7277 27.4684 40.6327 27.4818 40.6191C27.5088 40.6191 27.4953 40.6598 27.5088 40.6734C27.5223 40.7277 27.5628 40.782 27.5628 40.8499C27.5628 40.9043 27.5358 40.9722 27.5088 41.0129C27.4819 41.0672 27.4279 41.0944 27.4414 41.1759C27.4414 41.203 27.4414 41.2166 27.4549 41.2302H27.4414ZM27.4818 40.1302C27.5358 40.1573 27.5628 40.2388 27.5628 40.3067C27.5628 40.361 27.5358 40.4289 27.5358 40.4697C27.5358 40.524 27.5358 40.5783 27.5628 40.6055C27.5762 40.6191 27.6032 40.6327 27.6032 40.6734C27.6032 40.7141 27.5762 40.7277 27.5762 40.7549C27.5628 40.7277 27.5493 40.687 27.5358 40.6598C27.5358 40.6191 27.5223 40.5919 27.5088 40.5512C27.5088 40.5104 27.5088 40.4969 27.5088 40.4561C27.5088 40.3339 27.4818 40.2117 27.4414 40.1166L27.4818 40.1302ZM27.8055 40.8635C27.8055 40.8635 27.8055 40.945 27.7785 40.9586C27.7515 40.9993 27.7111 41.0129 27.6976 41.0536C27.6841 41.108 27.7246 41.1759 27.7111 41.2302C27.6976 41.2302 27.6841 41.203 27.6841 41.1894C27.6841 41.1759 27.6706 41.1623 27.6572 41.1487C27.6302 41.0672 27.6841 40.945 27.6572 40.8635C27.6572 40.8499 27.6302 40.8228 27.6302 40.8092C27.6302 40.7685 27.6706 40.7277 27.6706 40.6734C27.6706 40.6327 27.6437 40.6191 27.6302 40.6055C27.6167 40.5783 27.6032 40.5783 27.6032 40.5376C27.6032 40.4968 27.6302 40.4561 27.6437 40.4018C27.6572 40.3203 27.6437 40.2524 27.6167 40.1981C27.6572 40.2252 27.6841 40.2796 27.6976 40.3203C27.7246 40.361 27.7381 40.4289 27.7381 40.4833C27.7381 40.5512 27.7111 40.6327 27.7246 40.7006C27.7246 40.7549 27.792 40.782 27.792 40.8499L27.8055 40.8635ZM27.6167 39.8857C27.6167 39.8857 27.6167 39.8857 27.6167 39.8586C27.6437 39.8314 27.6976 39.8586 27.7111 39.8993C27.7515 39.9944 27.6706 40.1166 27.5897 40.1302C27.5628 40.1302 27.5088 40.1302 27.5088 40.103C27.5088 40.103 27.5223 40.103 27.5358 40.103C27.5897 40.103 27.6437 40.0623 27.6706 40.0215C27.6976 39.9536 27.6706 39.8993 27.6032 39.8993L27.6167 39.8857ZM27.6032 39.8993C27.6032 39.8993 27.5897 39.9265 27.6032 39.9536C27.6032 39.9536 27.6167 39.9672 27.6167 39.9808C27.6167 39.9808 27.5762 40.0215 27.5493 40.0215C27.4953 40.0351 27.4279 40.0215 27.4009 39.9944C27.4953 39.9944 27.5493 39.9401 27.6032 39.8993ZM26.9829 39.7499C26.9829 39.7499 27.0099 39.7364 27.0234 39.7228C27.0773 39.7228 27.0234 39.7771 26.9829 39.7499ZM27.0369 39.7907C27.0369 39.7907 27.0908 39.7499 27.1313 39.7499C27.1582 39.7907 27.1043 39.8043 27.0908 39.8314C27.0638 39.845 27.0369 39.8722 26.9829 39.8586C26.9425 39.8586 26.9155 39.8314 26.875 39.8178C26.7941 39.7771 26.6862 39.8178 26.6188 39.8178C26.5514 39.845 26.5109 39.8857 26.4705 39.9265C26.5109 39.8043 26.5784 39.7364 26.6863 39.7228C26.7267 39.7228 26.7672 39.7228 26.8076 39.7228C26.8885 39.7228 26.9694 39.7771 27.0234 39.7635L27.0369 39.7907ZM25.9446 38.0252C25.9446 38.0252 25.9716 37.9981 25.9985 37.9981C26.066 37.9845 26.1334 37.9573 26.2008 37.9573C26.2008 37.9573 26.2008 37.9709 26.2008 37.9845C26.2008 37.9845 26.1064 38.0117 26.066 38.0117C26.0255 38.0117 25.985 38.0388 25.9446 38.0252ZM25.7828 38.1746C25.7828 38.1746 25.7828 38.161 25.7693 38.1475C25.8097 38.1203 25.8367 38.0796 25.8637 38.066C25.8637 38.161 25.8772 38.1882 25.8772 38.1882C25.8772 38.2154 25.8772 38.2561 25.8906 38.2833C25.8906 38.324 25.9041 38.4191 25.9176 38.4598C25.9176 38.5277 25.9716 38.6771 25.985 38.7314C26.0525 38.908 26.1334 39.0845 26.2143 39.2475C26.2143 39.2746 26.1873 39.2882 26.1873 39.3154C26.1873 39.3425 26.2143 39.3425 26.2143 39.3561C26.2143 39.3833 26.2008 39.3968 26.2008 39.4104C26.2008 39.4648 26.2817 39.4783 26.3222 39.4783C26.3356 39.5055 26.3491 39.5326 26.3626 39.5598C26.3626 39.5734 26.3896 39.6277 26.3896 39.6413C26.3896 39.6549 26.3491 39.6685 26.3356 39.682C26.3087 39.7092 26.2817 39.7499 26.2547 39.7771C26.1873 39.8586 26.1334 39.9536 26.0929 40.0487C26.0929 40.0759 26.0794 40.0894 26.066 40.103C26.066 39.424 26.0255 38.7857 25.7558 38.3647C25.7558 38.3512 25.7558 38.3376 25.7558 38.3104V38.2289C25.7558 38.2289 25.7558 38.1746 25.7558 38.1475L25.7828 38.1746ZM25.9581 41.0672C25.9581 41.0672 25.9581 41.0401 25.9581 41.0265C25.9581 40.9857 25.9716 40.945 25.985 40.9043C25.985 40.8771 25.985 40.8499 25.9985 40.8364C25.985 40.8771 25.985 40.945 25.9716 40.9857C25.9716 41.0129 25.9716 41.0401 25.9446 41.0672H25.9581ZM26.0255 40.9314C26.0794 41.0536 26.039 41.203 26.1064 41.3117C26.1469 41.3796 26.2143 41.4067 26.3087 41.4339C26.3491 41.461 26.3087 41.5018 26.3222 41.5425C26.3222 41.5697 26.3491 41.5968 26.3491 41.624C26.3491 41.6512 26.3491 41.6783 26.3491 41.7191C26.3356 41.7055 26.3356 41.6783 26.3222 41.6512C26.3222 41.624 26.2817 41.5833 26.2682 41.5697C26.2143 41.5154 26.1334 41.5018 26.0794 41.4475C26.0255 41.3931 25.985 41.2981 25.985 41.1894C25.985 41.108 26.0255 41.0401 26.0255 40.945V40.9314ZM26.5379 41.8413V41.882C26.5244 41.882 26.511 41.8549 26.511 41.8277C26.4975 41.7734 26.484 41.7191 26.4975 41.6512C26.5244 41.5833 26.5514 41.5018 26.5244 41.4203C26.5244 41.3796 26.484 41.3524 26.4705 41.3117C26.4435 41.2573 26.4031 41.2166 26.4166 41.1215C26.4166 41.0672 26.4435 40.9857 26.457 40.9178C26.457 40.8364 26.457 40.7685 26.4705 40.7006C26.4705 40.6734 26.4975 40.6191 26.511 40.6055C26.5244 40.6055 26.5379 40.6327 26.5379 40.6462C26.5514 40.7006 26.5649 40.782 26.5514 40.8499C26.5514 40.8907 26.5244 40.9314 26.4975 40.9722C26.484 41.0401 26.4705 41.1215 26.484 41.1894C26.484 41.2166 26.511 41.2573 26.511 41.2845C26.5379 41.3524 26.5919 41.4067 26.5919 41.4746C26.5919 41.5018 26.5919 41.5425 26.5919 41.5697C26.5919 41.6376 26.5514 41.6783 26.5649 41.7598C26.5649 41.8006 26.6053 41.8277 26.6188 41.8685C26.6593 41.9499 26.6728 42.0586 26.6188 42.1536C26.5784 42.1536 26.5784 42.1129 26.5514 42.0857C26.6053 42.0178 26.5784 41.9092 26.5379 41.8413ZM27.1582 41.6512C27.1582 41.6512 27.1582 41.624 27.1582 41.6104C27.1582 41.5833 27.1447 41.5561 27.1447 41.5154C27.1447 41.4882 27.1717 41.461 27.1717 41.4203C27.1717 41.3796 27.1582 41.366 27.1582 41.3252C27.1582 41.3117 27.1582 41.2709 27.1582 41.2573C27.1582 41.2573 27.1447 41.1487 27.1313 41.1487C27.1043 41.1487 27.0908 41.203 27.0908 41.2302C27.0908 41.2302 27.0908 41.2709 27.0908 41.2845C27.0908 41.3117 27.1178 41.3252 27.1178 41.3524C27.1312 41.4067 27.0908 41.4475 27.0908 41.4882C27.0908 41.5154 27.1043 41.5289 27.1043 41.5561C27.1043 41.5968 27.0773 41.6376 27.0773 41.6648C27.0773 41.6919 27.1043 41.7191 27.1178 41.7598C27.1447 41.882 27.0773 41.9635 27.0369 42.0314C27.0099 42.0586 26.9829 42.0586 26.9559 42.0857C26.929 42.1129 26.929 42.1944 26.8481 42.1536C26.8481 42.1265 26.8885 42.1265 26.902 42.0993C26.9425 42.0722 26.9829 42.045 26.9964 41.9907C27.0099 41.9228 26.9964 41.8277 26.9964 41.7327C26.9964 41.6919 27.0099 41.6647 27.0234 41.624C27.0234 41.5833 27.0503 41.5425 27.0503 41.5154C27.0503 41.4339 27.0099 41.366 27.0234 41.2981C27.0234 41.2709 27.0638 41.2438 27.0638 41.2166C27.0638 41.1894 27.0638 41.1759 27.0369 41.1623C27.0099 41.1623 26.9694 41.1623 26.929 41.1623C26.929 41.1759 26.929 41.1894 26.929 41.2166C26.929 41.2302 26.9559 41.2438 26.9559 41.2573C26.9559 41.2845 26.9694 41.3117 26.9829 41.3524C26.9829 41.3796 27.0099 41.4067 27.0099 41.4475C27.0099 41.5425 26.9425 41.6104 26.9559 41.7191C26.9425 41.7191 26.929 41.6919 26.929 41.6783C26.929 41.6648 26.929 41.6512 26.929 41.624C26.929 41.5968 26.9559 41.5833 26.9559 41.5561C26.9559 41.5289 26.9559 41.5154 26.9559 41.4882C26.9559 41.4475 26.9829 41.4339 26.9829 41.4067C26.9829 41.3796 26.9694 41.366 26.9559 41.3524C26.9559 41.2981 26.929 41.2573 26.929 41.203C26.929 41.203 26.929 41.203 26.929 41.1759C26.902 41.1623 26.8616 41.1759 26.8346 41.1487C26.8076 41.1215 26.8076 41.0536 26.7941 41.0265C26.8076 41.0129 26.8346 41.0265 26.875 40.9993C26.902 40.9993 26.9155 40.9722 26.9425 40.9722C26.9694 40.9722 26.9964 40.9722 27.0099 40.9722C27.0369 40.9722 27.0503 40.9586 27.0638 40.9586C27.0908 40.9586 27.1178 40.9857 27.1447 40.9857C27.1447 40.9857 27.1582 40.9857 27.1717 40.9857C27.2122 40.9857 27.2256 41.0129 27.2391 41.0265C27.3065 40.9993 27.3335 40.945 27.3605 40.8907C27.3605 40.9722 27.2931 41.0265 27.3065 41.1215C27.3065 41.203 27.374 41.2573 27.3875 41.3117C27.3875 41.3252 27.3875 41.3524 27.3875 41.3796C27.3875 41.5018 27.347 41.5561 27.3065 41.6376C27.2796 41.624 27.2526 41.5833 27.2526 41.5561C27.2526 41.5018 27.3065 41.461 27.3065 41.4203C27.3065 41.3388 27.2796 41.2709 27.2661 41.2166C27.2661 41.1894 27.2526 41.1487 27.2391 41.1351C27.2391 41.1351 27.2256 41.108 27.2122 41.0944C27.2122 41.0808 27.2122 41.0536 27.1852 41.0401C27.1717 41.0401 27.1582 41.0672 27.1582 41.0808C27.1582 41.1351 27.2256 41.1894 27.2391 41.2302C27.2391 41.2438 27.2391 41.2709 27.2661 41.2981C27.2661 41.3252 27.2931 41.366 27.2796 41.4067C27.2796 41.4475 27.2256 41.4882 27.2122 41.5289C27.2122 41.5561 27.2122 41.5968 27.2391 41.624C27.2391 41.6376 27.2661 41.6648 27.2796 41.6783C27.2796 41.7055 27.3065 41.7327 27.3065 41.7734C27.3065 41.8006 27.3335 41.8413 27.3335 41.8685C27.3335 41.8956 27.3335 41.9499 27.3335 41.9771C27.3335 42.0178 27.3065 42.045 27.2931 42.0722C27.2661 42.1129 27.2661 42.1129 27.2256 42.1401C27.1987 42.1401 27.1717 42.1536 27.1313 42.1672C27.1178 42.1672 27.1043 42.1672 27.0908 42.1808C27.0638 42.1808 27.0369 42.1672 27.0099 42.1672C27.0099 42.0722 27.0908 42.0722 27.1447 42.0178C27.1852 41.9635 27.2256 41.882 27.2122 41.787C27.2122 41.7327 27.1717 41.6783 27.1717 41.624L27.1582 41.6512ZM27.9268 41.8141C27.9268 41.8141 27.9134 41.8413 27.8999 41.8549C27.8864 41.8956 27.8594 41.9364 27.8325 41.9771C27.7785 42.045 27.6841 42.0857 27.6167 42.1536C27.5897 42.1672 27.5762 42.1944 27.5493 42.2215C27.5223 42.2487 27.4953 42.2759 27.4818 42.2759C27.4818 42.2759 27.4549 42.2759 27.4414 42.2759C27.4414 42.2487 27.4549 42.2487 27.4684 42.2487C27.4684 42.2487 27.4953 42.2351 27.5088 42.208C27.5088 42.208 27.5088 42.1808 27.5088 42.1672C27.5358 42.1265 27.5897 42.0993 27.6167 42.045C27.6167 42.0314 27.6437 41.9907 27.6437 41.9771C27.6437 41.9771 27.6437 41.9499 27.6437 41.9364C27.6572 41.9092 27.6976 41.8956 27.7111 41.882C27.7111 41.8685 27.7381 41.8413 27.7515 41.8277C27.7515 41.8141 27.7785 41.7598 27.7785 41.7462C27.792 41.6512 27.7515 41.5833 27.7785 41.461C27.7381 41.5018 27.765 41.5833 27.765 41.6512C27.765 41.7462 27.7246 41.8006 27.6706 41.8413C27.6706 41.8141 27.6706 41.787 27.6706 41.7598C27.6706 41.7191 27.6976 41.7055 27.7246 41.6783C27.7515 41.624 27.7246 41.5561 27.7381 41.5018C27.7381 41.4746 27.7515 41.4475 27.765 41.4203C27.765 41.3931 27.765 41.366 27.765 41.3388C27.765 41.3252 27.7515 41.2981 27.7515 41.2845C27.7515 41.2573 27.7785 41.2438 27.7785 41.203C27.7785 41.1759 27.765 41.1623 27.765 41.1351C27.765 41.108 27.765 41.0672 27.792 41.0401C27.792 41.0401 27.8055 41.0401 27.819 41.0401C27.819 41.0401 27.8325 41.0129 27.8459 41.0129C27.8729 41.0129 27.8999 41.1351 27.8999 41.1759C27.8999 41.2438 27.8999 41.3117 27.8999 41.366C27.8999 41.4067 27.8999 41.461 27.8999 41.5018C27.8999 41.5833 27.9403 41.6512 27.9538 41.7327C27.9538 41.7734 27.9538 41.8277 27.9538 41.8685L27.9268 41.8141ZM22.7892 36.4092C22.7892 36.4092 22.8431 36.382 22.8701 36.3549C22.8701 36.382 22.8296 36.4092 22.7892 36.4092ZM22.7217 36.7894C22.7217 36.7894 22.7083 36.6401 22.6948 36.5857C22.6948 36.6265 22.7217 36.6672 22.7352 36.708C22.7352 36.7487 22.7487 36.803 22.7487 36.8438C22.7352 36.8438 22.7352 36.803 22.7217 36.7894ZM22.6273 36.4228C22.6273 36.4228 22.6543 36.3956 22.6678 36.3956C22.6678 36.3956 22.6678 36.3956 22.6543 36.4092C22.6543 36.4499 22.6543 36.5043 22.6948 36.5314C22.6813 36.5314 22.6678 36.5314 22.6543 36.545C22.6543 36.5178 22.6139 36.4364 22.6273 36.4092V36.4228ZM22.6139 36.287C22.6139 36.287 22.5464 36.1648 22.506 36.1104C22.5195 36.0561 22.5329 35.9746 22.5329 35.9067C22.5329 35.9067 22.5329 35.9203 22.5329 35.9339C22.5464 35.9882 22.6004 36.0561 22.5329 36.0697C22.5464 36.1512 22.5869 36.2327 22.6004 36.3141C22.6004 36.3141 22.6004 36.3006 22.6004 36.287H22.6139ZM22.5599 36.545C22.5599 36.545 22.4655 36.545 22.4251 36.545C22.3981 36.545 22.3846 36.5178 22.3577 36.5043C22.3037 36.4228 22.3307 36.2734 22.3307 36.1512C22.3442 36.1919 22.3307 36.287 22.3442 36.3549C22.3442 36.3956 22.3442 36.4364 22.3577 36.4771C22.3711 36.5178 22.4251 36.545 22.4655 36.545C22.479 36.545 22.506 36.545 22.5329 36.545C22.5329 36.545 22.5599 36.545 22.5734 36.545C22.5734 36.5586 22.5464 36.5586 22.5329 36.5586L22.5599 36.545ZM28.8438 42.3302C28.8438 42.3302 28.8034 42.3302 28.7764 42.3166C28.7359 42.3166 28.682 42.3166 28.6281 42.3166C28.5876 42.3166 28.5471 42.3166 28.4932 42.303C28.4527 42.303 28.3988 42.303 28.3584 42.2759C28.3179 42.2759 28.2909 42.2351 28.2505 42.2215C28.1291 42.1536 27.9943 42.0993 27.8594 42.045C27.8864 42.0043 27.9268 41.9635 27.9403 41.9228C27.9673 41.8685 27.9673 41.787 27.9808 41.7191C27.9808 41.6647 28.0078 41.624 28.0078 41.5833C28.0078 41.4882 28.0078 41.4067 28.0078 41.3117C27.9808 41.0401 28.0078 40.782 28.0078 40.5376C28.0078 40.4289 27.9808 40.3203 27.9403 40.2252C27.9134 40.1302 27.8864 40.0215 27.8459 39.9401C27.8459 39.9129 27.8055 39.8722 27.792 39.845C27.7785 39.8178 27.7381 39.8043 27.7246 39.7771C27.7246 39.7771 27.7246 39.7499 27.7246 39.7364C27.7246 39.6956 27.6706 39.682 27.6437 39.6685C27.6302 39.6549 27.6167 39.6413 27.5897 39.6277C27.5628 39.6277 27.5493 39.6006 27.5223 39.6006C27.5088 39.6006 27.4819 39.6006 27.4684 39.587C27.4549 39.587 27.4414 39.5598 27.4279 39.5598C27.374 39.5191 27.32 39.5462 27.2526 39.5191C27.2526 39.5191 27.2256 39.5191 27.2122 39.5191C27.1178 39.4919 26.9964 39.5191 26.8885 39.4783C26.7806 39.4512 26.6863 39.3968 26.6053 39.3561C26.6053 39.3018 26.5649 39.2882 26.5379 39.2746C26.5379 39.2475 26.5649 39.1931 26.5379 39.1796C26.5379 39.1796 26.511 39.1796 26.4975 39.1796C26.4435 39.003 26.4166 38.8265 26.3761 38.6635C26.3491 38.582 26.3087 38.5006 26.2952 38.4191C26.2952 38.3783 26.2952 38.324 26.2817 38.2833C26.2817 38.2425 26.2682 38.1882 26.2547 38.1475C26.2547 38.0796 26.2547 38.0117 26.2547 37.9438C26.2817 37.9166 26.3356 37.8759 26.3356 37.8215C26.3356 37.8215 26.3356 37.808 26.3356 37.7944C26.3356 37.7672 26.3087 37.7265 26.2952 37.6993C26.2547 37.6043 26.2413 37.482 26.2143 37.3598C26.1873 37.2376 26.1738 37.1289 26.1334 37.0203C26.1199 36.9796 26.1064 36.9524 26.0929 36.9252C26.0929 36.8573 26.0525 36.8166 25.985 36.803C25.985 36.7759 25.9581 36.7623 25.9446 36.7351C25.9446 36.7215 25.9041 36.6808 25.9041 36.6672C25.9041 36.6265 25.9041 36.5993 25.9041 36.5722C25.9041 36.5586 25.8772 36.545 25.8772 36.5314C25.8772 36.5314 25.8772 36.5043 25.8772 36.4907C25.8772 36.4635 25.8502 36.4635 25.8502 36.4499C25.8772 36.4092 25.8502 36.3549 25.8232 36.3277C25.8502 36.3006 25.8232 36.2598 25.8097 36.2327C25.8367 36.1919 25.8097 36.1512 25.7828 36.1376C25.7963 36.0968 25.7828 36.0561 25.7558 36.0289C25.7828 35.9746 25.7558 35.9339 25.7423 35.9067V35.8796C25.7423 35.866 25.7288 35.8524 25.7288 35.8388C25.7288 35.8252 25.7288 35.8117 25.7288 35.7981C25.7288 35.7845 25.7288 35.7573 25.7153 35.7438C25.7153 35.6351 25.6884 35.5808 25.621 35.5129C25.5266 35.4043 25.3917 35.3771 25.2838 35.3771C25.1625 35.3635 25.0411 35.4178 24.9467 35.4857C24.8793 35.5265 24.8388 35.5944 24.8119 35.6623C24.8119 35.6623 24.8119 35.6623 24.8119 35.6894C24.7849 35.7438 24.7579 35.7981 24.7579 35.866C24.7444 35.9067 24.731 35.9475 24.7175 35.9746C24.7175 35.9882 24.7175 36.0154 24.7175 36.0425C24.7175 36.0425 24.7175 36.0561 24.7175 36.0697C24.7175 36.0697 24.7175 36.0968 24.7175 36.1104C24.677 36.1376 24.6905 36.1783 24.6905 36.2191C24.6635 36.2327 24.6635 36.287 24.6905 36.3141C24.6501 36.3413 24.6501 36.4092 24.6905 36.4499C24.6905 36.4771 24.677 36.4771 24.677 36.5043C24.677 36.5178 24.6905 36.5314 24.6905 36.5586C24.6905 36.5722 24.6635 36.5857 24.6635 36.5993C24.6635 36.6401 24.6635 36.6536 24.6635 36.6672C24.6501 36.6944 24.6231 36.7351 24.6366 36.7759C24.6366 36.7894 24.6096 36.7894 24.6096 36.8166C24.6096 36.8166 24.6096 36.8438 24.6096 36.8573C24.6096 36.8845 24.5691 36.8981 24.5557 36.9252C24.5557 36.9388 24.5287 36.966 24.5152 36.9931C24.4748 37.0475 24.4478 37.1289 24.4208 37.1968C24.3669 37.4549 24.2995 37.7536 24.232 38.0117C24.232 38.066 24.2185 38.1203 24.1781 38.161C24.0432 38.1203 23.8814 38.0931 23.7331 38.0524C23.7331 38.0252 23.7331 37.9981 23.7061 37.9845C23.6792 37.9709 23.6387 37.9845 23.6117 37.9981C23.6117 37.9573 23.5443 37.9438 23.5039 37.9709C23.4904 37.9709 23.4634 37.9573 23.4499 37.9438C23.4364 37.8759 23.396 37.8215 23.342 37.7672C23.3151 37.7536 23.2881 37.7401 23.2611 37.7129C23.2207 37.6857 23.1802 37.6586 23.1263 37.645C23.0993 37.645 23.0319 37.5907 23.0184 37.5635C23.0184 37.5635 23.0184 37.5364 23.0184 37.5228C22.9779 37.3462 22.924 37.1833 22.8836 37.0067C22.8836 36.9796 22.8701 36.9524 22.8701 36.9252C22.8701 36.9252 22.8701 36.9117 22.8836 36.8981C22.8836 36.8845 22.8836 36.8573 22.8701 36.8302C22.8566 36.7623 22.8296 36.6944 22.8161 36.6265C22.897 36.6129 22.951 36.5857 23.0049 36.5314C23.0319 36.4771 23.0589 36.4499 23.0589 36.3685C23.0454 36.1783 22.897 36.0425 22.8836 35.8388C22.8836 35.7981 22.8836 35.7573 22.8836 35.7166C22.8566 35.7166 22.8431 35.7438 22.8431 35.7709C22.7892 35.9339 22.8836 36.0697 22.897 36.2055C22.897 36.2734 22.897 36.3413 22.8566 36.3685C22.8296 36.382 22.8026 36.4228 22.7757 36.4092C22.7487 36.3549 22.7487 36.2598 22.7622 36.1919C22.7352 36.1647 22.7757 36.124 22.7622 36.0833C22.7622 36.0833 22.7352 36.0425 22.7217 36.0289C22.7082 36.0154 22.6948 35.9882 22.6813 35.9746C22.6273 35.8931 22.5734 35.7981 22.5464 35.7166C22.5464 35.6894 22.533 35.6487 22.4925 35.6351C22.4655 35.6487 22.4925 35.6759 22.4925 35.6894C22.4925 35.7573 22.506 35.8117 22.5195 35.8931C22.5195 35.9475 22.5195 36.0425 22.5195 36.0968C22.5195 36.1104 22.4925 36.1376 22.506 36.1512L22.5329 36.1783C22.5329 36.1919 22.5464 36.2191 22.5599 36.2327C22.6004 36.287 22.6408 36.3549 22.6678 36.4228C22.6543 36.4228 22.6408 36.4499 22.6408 36.4771C22.533 36.5178 22.479 36.4499 22.4655 36.3549C22.4655 36.2734 22.4655 36.1919 22.4655 36.0968C22.452 36.0018 22.4116 35.9203 22.3711 35.866C22.3576 35.8524 22.3307 35.8252 22.3037 35.8252C22.3037 35.8524 22.3172 35.866 22.3307 35.8931C22.3846 36.0425 22.3577 36.287 22.3577 36.4635C22.3577 36.545 22.3981 36.5993 22.452 36.6401C22.5195 36.6808 22.6139 36.6536 22.6948 36.6401C22.7217 36.708 22.7352 36.7894 22.7487 36.8709C22.7487 36.8845 22.7487 36.9117 22.7487 36.9117C22.7487 36.9117 22.7757 36.9117 22.7757 36.9388C22.7757 36.9524 22.7892 36.9931 22.8027 37.0203C22.8566 37.224 22.9105 37.4277 22.951 37.6178C22.951 37.6314 22.9375 37.645 22.924 37.6586C22.924 37.6857 22.924 37.7129 22.924 37.7536C22.924 37.7672 22.924 37.7808 22.924 37.7944C22.924 37.808 22.9375 37.8215 22.951 37.8487C22.951 37.8894 22.951 37.9166 22.9779 37.9438C22.9779 37.9845 23.0049 38.0252 23.0184 38.0388C23.0319 38.0524 23.0589 38.066 23.0723 38.0796C23.0723 38.0931 23.0858 38.1475 23.0993 38.1746C23.0993 38.2154 23.1128 38.2425 23.1263 38.2833C23.1802 38.487 23.2207 38.6907 23.2746 38.8944C23.4499 39.5734 23.6117 40.2388 23.7735 40.9178C23.8005 41.0536 23.841 41.1894 23.8679 41.3252C23.841 41.3252 23.8005 41.3388 23.7735 41.3524C23.7331 41.3796 23.6792 41.3931 23.6387 41.4067C23.5578 41.4475 23.4904 41.4746 23.4229 41.5154C23.4229 41.5154 23.396 41.5154 23.3825 41.5425C23.2072 41.6648 23.0858 41.8685 22.9645 42.0586C22.951 42.0857 22.924 42.1129 22.9105 42.1401C22.9105 42.1536 22.9105 42.1808 22.8836 42.1944C22.8836 42.208 22.8566 42.2215 22.8566 42.2487C22.8296 42.3302 22.7892 42.4117 22.7892 42.5067C22.7757 42.6289 22.7892 42.7376 22.8296 42.8327C22.7757 42.8327 22.6678 42.8462 22.6678 42.9006C22.6678 42.9277 22.6948 42.9549 22.7082 42.9685C22.6813 42.9685 22.6543 42.9685 22.6273 42.9685C22.5734 42.9685 22.479 42.9549 22.4251 42.9685C22.4116 42.9685 22.3846 42.9956 22.3846 43.0228C22.3846 43.0771 22.4925 43.0771 22.5329 43.0771C22.5464 43.0771 22.5734 43.0771 22.5869 43.0771C22.6273 43.0771 22.6678 43.0771 22.7082 43.0771C22.7217 43.0771 22.7217 43.0771 22.7352 43.0907C22.7352 43.0907 22.7622 43.0907 22.7757 43.0907C22.7757 43.0907 22.8026 43.0907 22.8161 43.0907C22.8566 43.0907 22.9105 43.0907 22.9375 43.0907C22.9375 43.0907 22.9105 43.1178 22.897 43.1314C22.897 43.145 22.897 43.1586 22.897 43.1857C22.924 43.2265 22.951 43.2401 22.9914 43.2536C23.0723 43.2808 23.1533 43.2265 23.2342 43.2401C23.3016 43.2401 23.3555 43.2808 23.4364 43.2672C23.4095 43.2944 23.3825 43.3623 23.4095 43.403C23.4229 43.4166 23.4499 43.4166 23.4634 43.4438C23.5308 43.4438 23.5982 43.4438 23.6657 43.4438C23.7061 43.4438 23.8005 43.4166 23.841 43.4438C23.841 43.4438 23.8679 43.4845 23.8814 43.4981C23.8814 43.4981 23.8949 43.5117 23.9084 43.5252C23.9084 43.5252 23.9219 43.5388 23.9354 43.5524C23.9623 43.566 24.0432 43.5796 24.0567 43.6203C24.0567 43.6882 24.0567 43.7697 24.0972 43.824C24.1107 43.8512 24.1376 43.8647 24.1511 43.8919C24.1916 43.9191 24.232 43.9462 24.2725 43.9734C24.2995 43.987 24.3399 44.0006 24.3669 44.0141C24.3938 44.0277 24.4208 44.0549 24.4478 44.082C24.4343 44.082 24.4343 44.0549 24.4343 44.0413C24.4343 44.0006 24.4478 43.9598 24.4613 43.9326C24.5152 43.6882 24.3669 43.5117 24.259 43.3894C24.2455 43.3759 24.2185 43.3623 24.2185 43.3487C24.2725 43.3487 24.3129 43.308 24.3534 43.2808C24.3669 43.3623 24.3938 43.4573 24.4073 43.5524C24.4073 43.5796 24.4073 43.6203 24.4343 43.6339C24.4613 43.6339 24.5017 43.6339 24.5152 43.6203C24.5422 43.5931 24.5152 43.5252 24.5017 43.4981C24.4882 43.4302 24.4748 43.3759 24.4613 43.308C24.4613 43.2808 24.4343 43.2265 24.4478 43.2129C24.4478 43.1857 24.5422 43.1857 24.5961 43.1857C24.6231 43.1857 24.6635 43.1857 24.704 43.1857C24.7444 43.1857 24.7849 43.145 24.8254 43.1722C24.8523 43.1857 24.8523 43.2129 24.8793 43.2129C24.9467 43.2401 25.0411 43.2265 25.1085 43.2129C25.1355 43.2129 25.176 43.1993 25.2164 43.1857C25.2703 43.1722 25.3243 43.1722 25.3513 43.145C25.3917 43.145 25.4591 43.1314 25.4591 43.0907C25.4591 43.0771 25.4322 43.0771 25.4457 43.0499C25.4726 43.0499 25.4996 43.0228 25.5401 43.0228C25.5805 43.0228 25.6344 43.0364 25.6749 43.0364C25.7019 43.0364 25.7288 43.0364 25.7423 43.0364C25.7963 43.0364 25.8502 43.0635 25.9041 43.0635C25.9311 43.0635 25.9581 43.0499 25.985 43.0364C26.0255 43.0364 26.0525 43.0364 26.0929 43.0364C26.1469 43.0364 26.2008 43.0364 26.2413 43.0364C26.3087 43.0364 26.3761 43.0092 26.43 42.9956C26.43 42.9956 26.457 42.9685 26.4705 42.9685C26.484 42.9685 26.5244 42.9685 26.5514 42.982C26.5784 42.982 26.6188 42.982 26.6323 42.982C26.6593 42.982 26.7132 42.982 26.7132 42.9549C26.7132 42.9413 26.6862 42.9141 26.6728 42.9006C26.6053 42.8598 26.4705 42.8598 26.3896 42.8734C26.3626 42.8734 26.3356 42.887 26.3222 42.8734C26.3222 42.8462 26.3491 42.8598 26.3761 42.8462C26.3896 42.8462 26.4031 42.8191 26.4031 42.8191C26.4705 42.8327 26.5649 42.8327 26.6323 42.8191C26.6728 42.8462 26.7267 42.8462 26.7806 42.8598C26.7806 42.8598 26.7806 42.887 26.7806 42.9006C26.8211 42.9277 26.875 42.9277 26.929 42.9413C27.0773 42.9413 27.2391 42.982 27.3875 42.982C27.4414 43.0364 27.5628 43.0228 27.6437 43.0499C27.6167 43.0499 27.6032 43.0771 27.5897 43.0907C27.4818 43.0635 27.3605 43.0771 27.2661 43.1043C27.2256 43.1043 27.2122 43.1586 27.2526 43.1993C27.2796 43.2265 27.3605 43.2401 27.4279 43.2401C27.4953 43.2401 27.5628 43.2401 27.6167 43.2401C27.6437 43.2401 27.6841 43.2129 27.6976 43.1993C27.7111 43.1993 27.7111 43.1722 27.7111 43.1586C27.7785 43.1586 27.9403 43.1586 27.9538 43.1043C27.9538 43.0771 27.9403 43.0771 27.9403 43.0635C27.9673 43.0635 27.9808 43.0228 28.0078 43.0228C28.0212 43.0228 28.0347 43.0228 28.0482 43.0228C28.0617 43.0228 28.0887 43.0228 28.1021 43.0092C28.1291 42.9956 28.1291 42.9685 28.1561 42.9549C28.1965 42.9549 28.2235 42.9549 28.264 42.9549C28.3044 42.9549 28.3314 42.9006 28.3718 42.887C28.4123 42.887 28.4527 42.887 28.4932 42.887C28.5337 42.887 28.5741 42.9141 28.6146 42.9141C28.655 42.9141 28.709 42.9141 28.7494 42.887C28.7764 42.887 28.7899 42.8598 28.8168 42.8462C28.8573 42.8462 28.9112 42.8462 28.9382 42.8055V42.7783C29.0191 42.7512 29.0461 42.6968 29.0461 42.5746C29.0461 42.466 28.9652 42.4117 28.8573 42.3845L28.8438 42.3302ZM26.5514 43.0499C26.5514 43.0499 26.5109 43.0635 26.484 43.0635C26.4705 43.0635 26.457 43.0499 26.4435 43.0364C26.4166 43.0364 26.3761 43.0228 26.3356 43.0228C26.2952 43.0228 26.1603 43.0364 26.2278 43.0907C26.2547 43.1043 26.3087 43.1178 26.3356 43.1314C26.3222 43.145 26.3356 43.1722 26.3356 43.1857C26.3761 43.2129 26.4975 43.2129 26.5649 43.2265C26.6053 43.2265 26.6728 43.2265 26.7267 43.2265C26.7537 43.2265 26.7806 43.2536 26.8076 43.2536C26.875 43.2536 26.9155 43.2536 26.9559 43.2129C26.9829 43.1993 27.0099 43.1722 26.9964 43.145C26.9425 43.1043 26.875 43.1043 26.7806 43.0907C26.7537 43.0228 26.6188 43.0228 26.5514 43.0499ZM26.2547 42.2215C26.2547 42.2215 26.3222 42.1944 26.3491 42.1808C26.3087 42.1265 26.1604 42.1401 26.1738 42.2351C26.1738 42.2759 26.2682 42.2894 26.2682 42.2351L26.2547 42.2215ZM26.929 41.0401C26.929 41.0401 26.9559 41.0944 26.9829 41.0944C27.0099 41.0944 27.0503 41.0672 27.0369 41.0401C27.0099 41.0401 26.9559 41.0401 26.929 41.0401ZM26.7267 40.2931C26.7267 40.2931 26.8076 40.3067 26.7672 40.3339C26.7672 40.3339 26.7537 40.3339 26.7402 40.3339C26.7402 40.3746 26.8076 40.3746 26.8211 40.3475C26.8211 40.3475 26.8346 40.3475 26.8211 40.361C26.7672 40.3746 26.6863 40.361 26.6997 40.2931H26.7267ZM26.8076 40.2524C26.8076 40.2524 26.6863 40.2524 26.6323 40.2524L26.6053 40.2388C26.6053 40.2931 26.6323 40.3067 26.6728 40.3203C26.6997 40.3882 26.7672 40.4154 26.8616 40.4154C26.8616 40.4154 26.8616 40.4289 26.8885 40.4425C26.8885 40.4425 26.9155 40.4289 26.9155 40.4154C26.9155 40.4018 26.902 40.361 26.8885 40.3475C26.8885 40.3203 26.8346 40.2796 26.8076 40.266V40.2524ZM27.1987 40.3475C27.1987 40.3475 27.1987 40.3475 27.1717 40.3475C27.1717 40.3339 27.1717 40.3475 27.1852 40.3339C27.1852 40.3067 27.1852 40.2796 27.2256 40.2796C27.2391 40.2796 27.2391 40.3203 27.2256 40.3339C27.2661 40.3339 27.2796 40.3067 27.2931 40.2796C27.3065 40.2796 27.3066 40.2796 27.32 40.2931C27.32 40.3475 27.2526 40.3746 27.1987 40.3475ZM27.3605 40.2252C27.3605 40.2252 27.2796 40.1981 27.2391 40.2117C27.2122 40.2117 27.1717 40.2388 27.1582 40.266C27.1447 40.2931 27.1178 40.3475 27.1178 40.3882C27.1178 40.3882 27.1178 40.4018 27.1313 40.4154C27.1313 40.4154 27.1312 40.3882 27.1582 40.3882C27.2391 40.3882 27.2796 40.3882 27.32 40.361C27.347 40.3475 27.3605 40.3067 27.374 40.2796C27.374 40.2524 27.4144 40.2388 27.4009 40.2117C27.4009 40.2117 27.374 40.2388 27.3605 40.2388V40.2252ZM27.0503 40.2252L27.0234 40.1845C27.0099 40.2252 26.9829 40.2388 26.9694 40.2388C26.9425 40.2388 26.9425 40.2388 26.929 40.2388C26.929 40.2931 27.0234 40.2796 27.0369 40.2388C27.0503 40.266 27.1313 40.2796 27.1313 40.2388C27.1043 40.2388 27.0908 40.2388 27.0638 40.2388L27.0503 40.2252ZM25.2838 38.3919C25.2838 38.3919 25.2569 38.4191 25.2299 38.3919C25.2164 38.3648 25.1894 38.3376 25.2029 38.2968C25.2029 38.2561 25.2434 38.2154 25.2704 38.2018C25.3378 38.2425 25.3378 38.3376 25.2704 38.3919H25.2838ZM25.2569 38.1882C25.2569 38.1882 25.1625 38.2154 25.1355 38.2561C25.122 38.2833 25.1085 38.3376 25.1355 38.3647C25.149 38.4055 25.2164 38.4462 25.2569 38.4462C25.3108 38.4462 25.3647 38.4055 25.3917 38.3647C25.4322 38.2697 25.3648 38.1746 25.2569 38.1882ZM25.3782 36.3277C25.3782 36.3277 25.3648 36.3277 25.3513 36.3277C25.3513 36.3277 25.3243 36.3277 25.3108 36.3277C25.2973 36.3277 25.2838 36.3277 25.2704 36.3277C25.2299 36.3006 25.2029 36.3277 25.176 36.3277C25.1625 36.3277 25.1625 36.3141 25.1355 36.3141C25.1355 36.3141 25.1355 36.3413 25.1355 36.3549C25.149 36.3549 25.1625 36.3549 25.176 36.3549C25.176 36.3685 25.176 36.4092 25.2164 36.4228C25.2299 36.4228 25.2838 36.4228 25.2973 36.4228C25.3108 36.4228 25.3243 36.382 25.3378 36.3549C25.3378 36.3549 25.3647 36.3549 25.3917 36.3549C25.3917 36.3277 25.3917 36.3141 25.3647 36.3141L25.3782 36.3277Z" fill="#231F20"/>
<path fill-rule="evenodd" clip-rule="evenodd" d="M30.2734 46.309L39.47 58.8571L31.9725 42.6016L30.2734 46.309Z" fill="#F58220"/>
<path fill-rule="evenodd" clip-rule="evenodd" d="M11.0566 58.8528L24.4335 46.9158L20.2532 46.3047L11.0566 58.8528Z" fill="#F58220"/>
<path fill-rule="evenodd" clip-rule="evenodd" d="M25.7832 46.6184L30.0444 46.0073L31.7704 42.1641L25.7832 46.6184Z" fill="#F58220"/>
<path fill-rule="evenodd" clip-rule="evenodd" d="M18.7695 42.1641L20.4686 45.9937L24.7433 46.6184L18.7695 42.1641Z" fill="#F58220"/>
<path fill-rule="evenodd" clip-rule="evenodd" d="M20.6716 34.1289L17.624 36.9943L18.4736 41.1499L20.6716 34.1289Z" fill="#F58220"/>
<path fill-rule="evenodd" clip-rule="evenodd" d="M29.8682 34.1289L32.9022 36.9943L32.0527 41.1499L29.8682 34.1289Z" fill="#F58220"/>
</svg>
